<svg width="21" height="18" viewBox="0 0 21 18" fill="none" xmlns="http://www.w3.org/2000/svg">
<path fill-rule="evenodd" clip-rule="evenodd" d="M1.5 3C1.5 2.58579 1.83579 2.25 2.25 2.25H3.75V0.75C3.75 0.335786 4.08579 0 4.5 0C4.91421 0 5.25 0.335786 5.25 0.75V2.25H6.75C7.16421 2.25 7.5 2.58579 7.5 3C7.5 3.41421 7.16421 3.75 6.75 3.75H5.25V5.25C5.25 5.66421 4.91421 6 4.5 6C4.08579 6 3.75 5.66421 3.75 5.25V3.75H2.25C1.83579 3.75 1.5 3.41421 1.5 3ZM14.25 15H13.5V14.25C13.5 13.8358 13.1642 13.5 12.75 13.5C12.3358 13.5 12 13.8358 12 14.25V15H11.25C10.8358 15 10.5 15.3358 10.5 15.75C10.5 16.1642 10.8358 16.5 11.25 16.5H12V17.25C12 17.6642 12.3358 18 12.75 18C13.1642 18 13.5 17.6642 13.5 17.25V16.5H14.25C14.6642 16.5 15 16.1642 15 15.75C15 15.3358 14.6642 15 14.25 15ZM19.5 10.5H18V9C18 8.58579 17.6642 8.25 17.25 8.25C16.8358 8.25 16.5 8.58579 16.5 9V10.5H15C14.5858 10.5 14.25 10.8358 14.25 11.25C14.25 11.6642 14.5858 12 15 12H16.5V13.5C16.5 13.9142 16.8358 14.25 17.25 14.25C17.6642 14.25 18 13.9142 18 13.5V12H19.5C19.9142 12 20.25 11.6642 20.25 11.25C20.25 10.8358 19.9142 10.5 19.5 10.5ZM17.5603 4.5L4.5 17.5603C3.91429 18.1456 2.96508 18.1456 2.37937 17.5603L0.43875 15.6216C0.157371 15.3402 -0.000710964 14.9587 -0.000710964 14.5608C-0.000710964 14.1629 0.157371 13.7813 0.43875 13.5L13.5 0.439687C13.7813 0.158309 14.1629 0.000226498 14.5608 0.000226498C14.9587 0.000226498 15.3402 0.158309 15.6216 0.439687L17.5603 2.37844C17.8417 2.65975 17.9998 3.04133 17.9998 3.43922C17.9998 3.8371 17.8417 4.21869 17.5603 4.5ZM12.4388 7.5L10.5 5.56031L1.5 14.5603L3.43875 16.5L12.4388 7.5ZM16.5 3.43969L14.5603 1.5L11.5603 4.5L13.5 6.43969L16.5 3.43969Z" fill="#F05A60"/>
</svg>
