<svg width="16" height="20" viewBox="0 0 16 20" fill="none" xmlns="http://www.w3.org/2000/svg">
<path d="M0.832031 16.3845V14.8848H2.63978V7.423C2.63978 6.07817 3.05486 4.88908 3.88503 3.85575C4.71503 2.82242 5.7807 2.1615 7.08203 1.873V1.25C7.08203 0.902833 7.20345 0.607667 7.44628 0.3645C7.68912 0.1215 7.98395 0 8.33078 0C8.67778 0 8.97303 0.1215 9.21653 0.3645C9.4602 0.607667 9.58203 0.902833 9.58203 1.25V1.873C10.8834 2.1615 11.949 2.82242 12.779 3.85575C13.6092 4.88908 14.0243 6.07817 14.0243 7.423V14.8848H15.832V16.3845H0.832031ZM8.33028 19.1923C7.83278 19.1923 7.40745 19.0153 7.05428 18.6613C6.70095 18.3073 6.52428 17.8817 6.52428 17.3845H10.1398C10.1398 17.8833 9.96261 18.3093 9.60828 18.6625C9.25395 19.0157 8.82795 19.1923 8.33028 19.1923ZM4.13978 14.8848H12.5243V7.423C12.5243 6.26533 12.115 5.27725 11.2965 4.45875C10.4779 3.64008 9.4897 3.23075 8.33203 3.23075C7.17436 3.23075 6.1862 3.64008 5.36753 4.45875C4.54903 5.27725 4.13978 6.26533 4.13978 7.423V14.8848Z" fill="#0E0D0D"/>
</svg>
