<svg width="52" height="52" viewBox="0 0 52 52" fill="none" xmlns="http://www.w3.org/2000/svg">
<rect x="1" y="1" width="50" height="50" rx="25" stroke="#0E0D0D" stroke-width="2"/>
<path d="M32.9644 35.8259C31.6132 37.1358 30.1379 36.929 28.7177 36.3085C27.2148 35.6743 25.836 35.6467 24.2504 36.3085C22.265 37.1634 21.2171 36.9152 20.0313 35.8259C13.3029 28.8906 14.2956 18.3291 21.9341 17.9431C23.7954 18.0396 25.0915 18.9634 26.1807 19.0461C27.8077 18.7152 29.3657 17.7638 31.103 17.8879C33.185 18.0534 34.7568 18.8806 35.7909 20.3697C31.4891 22.9481 32.5094 28.6149 36.4527 30.2005C35.6668 32.2687 34.6465 34.3231 32.9506 35.8397L32.9644 35.8259ZM26.0429 17.8603C25.836 14.7856 28.3317 12.2487 31.1995 12.0005C31.5994 15.5578 27.9732 18.205 26.0429 17.8603Z" fill="#0E0D0D"/>
</svg>
