<svg width="24" height="24" viewBox="0 0 24 24" fill="none" xmlns="http://www.w3.org/2000/svg">
<path d="M12 18.4C13.6974 18.4 15.3253 17.7257 16.5255 16.5255C17.7257 15.3253 18.4 13.6974 18.4 12C18.4 10.3026 17.7257 8.67475 16.5255 7.47452C15.3253 6.27428 13.6974 5.6 12 5.6C10.3026 5.6 8.67475 6.27428 7.47452 7.47452C6.27428 8.67475 5.6 10.3026 5.6 12C5.6 13.6974 6.27428 15.3253 7.47452 16.5255C8.67475 17.7257 10.3026 18.4 12 18.4ZM12 4C13.0506 4 14.0909 4.20693 15.0615 4.60896C16.0321 5.011 16.914 5.60028 17.6569 6.34315C18.3997 7.08601 18.989 7.96793 19.391 8.93853C19.7931 9.90914 20 10.9494 20 12C20 14.1217 19.1571 16.1566 17.6569 17.6569C16.1566 19.1571 14.1217 20 12 20C7.576 20 4 16.4 4 12C4 9.87827 4.84285 7.84344 6.34315 6.34315C7.84344 4.84285 9.87827 4 12 4ZM12.4 8V12.2L16 14.336L15.4 15.32L11.2 12.8V8H12.4Z" fill="#0E0D0D" fill-opacity="0.7"/>
</svg>
