<svg width="24" height="24" viewBox="0 0 24 24" fill="none" xmlns="http://www.w3.org/2000/svg">
<path fill-rule="evenodd" clip-rule="evenodd" d="M21.462 19.887C21.2998 19.9714 21.1175 20.0097 20.935 19.9977C20.7525 19.9857 20.5768 19.9239 20.427 19.819L10.427 12.819C10.2954 12.7268 10.1879 12.6042 10.1137 12.4616C10.0395 12.3191 10.0008 12.1607 10.0008 12C10.0008 11.8393 10.0395 11.6809 10.1137 11.5384C10.1879 11.3958 10.2954 11.2732 10.427 11.181L20.427 4.181C20.5768 4.07624 20.7525 4.01456 20.935 4.00267C21.1174 3.99078 21.2996 4.02914 21.4618 4.11358C21.624 4.19801 21.7599 4.32529 21.8548 4.48158C21.9497 4.63786 21.9999 4.81717 22 5V19C22 19.1829 21.9499 19.3623 21.855 19.5187C21.7602 19.6751 21.6242 19.8025 21.462 19.887ZM8 18.2C8 18.6774 7.81036 19.1352 7.47279 19.4728C7.13523 19.8104 6.67739 20 6.2 20H4.8C4.56362 20 4.32956 19.9534 4.11117 19.863C3.89278 19.7725 3.69435 19.6399 3.52721 19.4728C3.36006 19.3056 3.22747 19.1072 3.13702 18.8888C3.04656 18.6704 3 18.4364 3 18.2V5.8C3 5.56362 3.04656 5.32956 3.13702 5.11117C3.22747 4.89278 3.36006 4.69435 3.52721 4.52721C3.69435 4.36006 3.89278 4.22748 4.11117 4.13702C4.32956 4.04656 4.56362 4 4.8 4H6.2C6.67739 4 7.13523 4.18964 7.47279 4.52721C7.81036 4.86477 8 5.32261 8 5.8L8 18.2Z" fill="white" fill-opacity="0.6"/>
</svg>
