<svg width="15" height="19" viewBox="0 0 15 19" fill="none" xmlns="http://www.w3.org/2000/svg">
<path d="M0.458008 18.6038V2.4164C0.458008 1.86914 0.647591 1.40592 1.02676 1.02676C1.40592 0.647591 1.86914 0.458008 2.4164 0.458008H12.5829C13.1302 0.458008 13.5934 0.647591 13.9726 1.02676C14.3518 1.40592 14.5413 1.86914 14.5413 2.4164V18.6038L7.49967 15.583L0.458008 18.6038ZM2.08301 16.1122L7.49967 13.783L12.9163 16.1122V2.4164C12.9163 2.33299 12.8816 2.25661 12.8121 2.18728C12.7427 2.11776 12.6664 2.08301 12.5829 2.08301H2.4164C2.33299 2.08301 2.25661 2.11776 2.18728 2.18728C2.11776 2.25661 2.08301 2.33299 2.08301 2.4164V16.1122Z" fill="#FAFAFA"/>
</svg>
