<svg width="36" height="36" viewBox="0 0 36 36" fill="none" xmlns="http://www.w3.org/2000/svg">
<path d="M17.7742 32.9533C17.7742 34.183 16.7741 35.1766 15.5509 35.1766C14.3277 35.1766 13.3276 34.1839 13.3276 32.9533C13.3276 31.7226 14.3202 30.73 15.5509 30.73C16.7816 30.73 17.7742 31.7301 17.7742 32.9533Z" fill="#F05A60"/>
<path d="M28.9402 32.9533C28.9402 34.183 27.9476 35.1765 26.7169 35.1765C25.4863 35.1765 24.4937 34.1839 24.4937 32.9533C24.4937 31.7226 25.4938 30.73 26.7169 30.73C27.9401 30.73 28.9402 31.7301 28.9402 32.9533Z" fill="#F05A60"/>
<path d="M35.6505 13.3142L30.9302 27.4515C30.5225 28.6963 29.3593 29.5333 28.0555 29.5333H14.2143C12.9106 29.5333 11.7464 28.6963 11.3321 27.4515L9.33193 21.45L8.07219 17.6633L6.62031 13.3142C6.29413 12.3291 7.02803 11.314 8.05813 11.314H34.207C35.2446 11.314 35.9776 12.3291 35.6524 13.3142H35.6505Z" fill="#F05A60"/>
<path d="M31.3496 10.117H10.9163C10.8114 10.117 10.7261 10.0111 10.7261 9.87984C10.7261 8.42327 11.325 7.0998 12.2661 6.23654C12.5669 5.96097 12.6747 5.71071 12.6504 5.33673C12.6091 4.61782 12.5491 3.89891 12.5613 3.18093C12.5791 2.09928 12.7994 1.06169 13.239 0.113135C13.3936 -0.235542 13.5305 -0.323648 13.8332 -0.2571C14.6534 -0.079012 15.3957 0.342775 16.0612 0.951085C16.4596 1.30632 16.8457 1.69905 17.1841 2.13677C17.44 2.46296 17.6837 2.567 18.0342 2.46295C19.1871 2.13677 20.3578 2.04023 21.5341 2.07023C22.5089 2.09272 23.4772 2.22582 24.4276 2.49295C24.6891 2.567 24.8906 2.48545 25.0809 2.23332C25.9545 1.09262 26.9761 0.233109 28.2124 -0.182117C28.2246 -0.182117 28.2359 -0.189614 28.2424 -0.197112C28.8423 -0.367702 28.9491 -0.308652 29.2285 0.381204C29.6915 1.5294 29.8461 2.76008 29.7993 4.03388C29.7871 4.47816 29.7402 4.93088 29.6924 5.37516C29.6624 5.64885 29.7224 5.86443 29.8705 6.05658C30.3101 6.6349 30.6728 7.27132 30.97 7.98274C31.2165 8.57886 31.4058 9.18624 31.537 9.81985C31.568 9.96982 31.4733 10.117 31.3496 10.117Z" fill="#F098A0"/>
<path d="M5.95872 16.1325C5.8828 16.0726 5.80219 16.0191 5.71596 15.9713C5.2145 15.6948 4.64462 15.5008 4.24814 15.0706C3.69607 14.4707 3.32396 13.7171 3.07839 12.9448C2.84031 12.1959 2.84594 11.4854 2.83469 10.7074C2.82906 10.2875 2.67441 9.94915 2.38385 9.68858C2.08203 9.43176 1.664 9.30897 1.12786 9.34646C0.72763 9.37083 0.393013 9.5358 0.152126 9.84511C-0.100009 10.1582 -0.241543 10.5959 -0.263101 11.1798C-0.29122 11.6129 -0.226546 12.1518 -0.0803269 12.7742C0.0555822 13.4012 0.22336 13.9777 0.422068 14.5035C0.871974 15.6892 1.48122 16.6874 2.24981 17.4963C3.00247 18.2987 3.93977 18.8132 5.05235 19.0438C5.42915 19.1216 5.81531 19.1778 6.19961 19.2013C6.49392 19.2191 7.12848 19.2903 7.1491 18.8929C7.15941 18.6867 7.04881 18.383 6.98507 18.1937C6.86603 17.8403 6.74793 17.4823 6.62889 17.1242C6.49955 16.7362 6.27647 16.3837 5.95872 16.1325Z" fill="#F098A0"/>
</svg>
