<svg width="15" height="19" viewBox="0 0 15 19" fill="none" xmlns="http://www.w3.org/2000/svg">
<path d="M2.04493 18.6043C1.56081 18.6043 1.15104 18.4366 0.815625 18.1012C0.480208 17.7658 0.3125 17.356 0.3125 16.8719V5.96176C0.3125 5.47764 0.480208 5.06787 0.815625 4.73245C1.15104 4.39704 1.56081 4.22933 2.04493 4.22933H3.90625V3.98975C3.90625 2.99707 4.257 2.14991 4.9585 1.44825C5.66016 0.746746 6.50733 0.395996 7.5 0.395996C8.49267 0.395996 9.33984 0.746746 10.0415 1.44825C10.743 2.14991 11.0938 2.99707 11.0938 3.98975V4.22933H12.9551C13.4392 4.22933 13.849 4.39704 14.1844 4.73245C14.5198 5.06787 14.6875 5.47764 14.6875 5.96176V16.8719C14.6875 17.356 14.5198 17.7658 14.1844 18.1012C13.849 18.4366 13.4392 18.6043 12.9551 18.6043H2.04493ZM2.04493 17.1668H12.9551C13.0289 17.1668 13.0964 17.1361 13.1578 17.0746C13.2193 17.0133 13.25 16.9457 13.25 16.8719V5.96176C13.25 5.88796 13.2193 5.8204 13.1578 5.75907C13.0964 5.69757 13.0289 5.66683 12.9551 5.66683H11.0938V7.82308C11.0938 8.02704 11.0249 8.19779 10.8872 8.33531C10.7497 8.47299 10.579 8.54183 10.375 8.54183C10.171 8.54183 10.0003 8.47299 9.86277 8.33531C9.72509 8.19779 9.65625 8.02704 9.65625 7.82308V5.66683H5.34375V7.82308C5.34375 8.02704 5.27491 8.19779 5.13723 8.33531C4.99971 8.47299 4.82897 8.54183 4.625 8.54183C4.42103 8.54183 4.25029 8.47299 4.11277 8.33531C3.97509 8.19779 3.90625 8.02704 3.90625 7.82308V5.66683H2.04493C1.97114 5.66683 1.90357 5.69757 1.84224 5.75907C1.78075 5.8204 1.75 5.88796 1.75 5.96176V16.8719C1.75 16.9457 1.78075 17.0133 1.84224 17.0746C1.90357 17.1361 1.97114 17.1668 2.04493 17.1668ZM5.34375 4.22933H9.65625V3.98975C9.65625 3.38903 9.44709 2.87944 9.02878 2.46096C8.61047 2.04265 8.10087 1.8335 7.5 1.8335C6.89913 1.8335 6.38953 2.04265 5.97122 2.46096C5.55291 2.87944 5.34375 3.38903 5.34375 3.98975V4.22933Z" fill="#E8EAED"/>
</svg>
