<svg width="11" height="7" viewBox="0 0 11 7" fill="none" xmlns="http://www.w3.org/2000/svg">
<path d="M9.88213 0.23892C10.0507 0.398316 10.1491 0.618146 10.1557 0.850077C10.1623 1.08201 10.0765 1.30705 9.91714 1.47573L4.95823 6.72634C4.87786 6.81128 4.78128 6.87926 4.6742 6.92624C4.56711 6.97323 4.4517 6.99828 4.33477 6.99992C4.21784 7.00155 4.10177 6.97973 3.99342 6.93574C3.88507 6.89176 3.78663 6.82651 3.70392 6.74384L1.07862 4.11853C0.92404 3.95264 0.839886 3.73323 0.843886 3.50652C0.847886 3.27981 0.939728 3.0635 1.10006 2.90317C1.2604 2.74283 1.4767 2.65099 1.70341 2.64699C1.93012 2.64299 2.14954 2.72715 2.31543 2.88172L4.30482 4.86995L8.64532 0.273924C8.80472 0.105318 9.02455 0.00691476 9.25648 0.000350674C9.48841 -0.00621341 9.71346 0.0795988 9.88213 0.23892Z" fill="white"/>
</svg>
