<svg width="16" height="12" viewBox="0 0 16 12" fill="none" xmlns="http://www.w3.org/2000/svg">
<path d="M5.28846 9.16269L13.7635 0.687696C13.9635 0.487696 14.1968 0.387695 14.4635 0.387695C14.7301 0.387695 14.9635 0.487696 15.1635 0.687696C15.3635 0.887695 15.4635 1.12536 15.4635 1.4007C15.4635 1.67603 15.3635 1.91336 15.1635 2.1127L5.98846 11.3127C5.78846 11.5127 5.55513 11.6127 5.28846 11.6127C5.02179 11.6127 4.78846 11.5127 4.58846 11.3127L0.288462 7.0127C0.0884617 6.8127 -0.00753846 6.57536 0.000461538 6.3007C0.00846154 6.02603 0.112795 5.78836 0.313461 5.5877C0.514128 5.38703 0.751795 5.28703 1.02646 5.28769C1.30113 5.28836 1.53846 5.38836 1.73846 5.5877L5.28846 9.16269Z" fill="#F05A60"/>
</svg>
