<svg width="21" height="21" viewBox="0 0 21 21" fill="none" xmlns="http://www.w3.org/2000/svg">
<path d="M11.6605 0.915855C10.9155 0.617892 10.0845 0.617892 9.3395 0.915855L1.836 3.91736C1.44172 4.07502 1.10372 4.34719 0.865586 4.69878C0.627455 5.05036 0.500119 5.46522 0.5 5.88985V15.1089C0.500119 15.5335 0.627455 15.9484 0.865586 16.2999C1.10372 16.6515 1.44172 16.9237 1.836 17.0814L9.3395 20.0829C10.0845 20.3808 10.9155 20.3808 11.6605 20.0829L19.164 17.0814C19.5582 16.9237 19.8961 16.6516 20.1343 16.3001C20.3724 15.9487 20.4998 15.5339 20.5 15.1094V5.89036C20.5 5.46563 20.3727 5.05066 20.1346 4.69898C19.8964 4.3473 19.5584 4.07505 19.164 3.91736L11.6605 0.915855ZM9.8035 2.07635C10.2506 1.89747 10.7494 1.89747 11.1965 2.07635L18.192 4.87486L15.1875 6.07635L7.4955 2.99986L9.8035 2.07635ZM5.8125 3.67285L13.5045 6.74986L10.5 7.95135L2.808 4.87486L5.8125 3.67285ZM1.7545 5.79986L9.875 9.04786V18.9499L9.8035 18.9229L2.3 15.9214C2.13762 15.8564 1.99844 15.7443 1.9004 15.5994C1.80237 15.4546 1.74998 15.2837 1.75 15.1089V5.89036C1.75 5.85969 1.75167 5.82952 1.755 5.79986M11.125 18.9499V9.04786L19.245 5.79986C19.2483 5.82986 19.25 5.85985 19.25 5.88985V15.1089C19.25 15.2837 19.1976 15.4546 19.0996 15.5994C19.0016 15.7443 18.8624 15.8564 18.7 15.9214L11.1965 18.9229L11.125 18.9499Z" fill="#0E0D0D" fill-opacity="0.5"/>
</svg>
