<svg width="27" height="12" viewBox="0 0 27 12" fill="none" xmlns="http://www.w3.org/2000/svg">
<path d="M0.5 12V10.604C0.5 9.84223 0.892732 9.21652 1.6782 8.72686C2.46385 8.23739 3.48783 7.99265 4.75015 7.99265C4.95872 7.99265 5.16879 7.99924 5.38037 8.0124C5.59195 8.02557 5.80504 8.05124 6.01963 8.0894C5.79938 8.44625 5.63594 8.81655 5.5293 9.2003C5.42286 9.58424 5.36963 9.97801 5.36963 10.3816V12H0.5ZM7.28261 12V10.4257C7.28261 9.88966 7.43117 9.39971 7.72828 8.95585C8.0254 8.5118 8.45365 8.12471 9.01302 7.79458C9.5724 7.46426 10.2333 7.21656 10.9958 7.0515C11.7581 6.88624 12.5914 6.80362 13.4958 6.80362C14.4174 6.80362 15.2594 6.88624 16.0217 7.0515C16.784 7.21656 17.4448 7.46426 18.0042 7.79458C18.5638 8.12471 18.9892 8.5118 19.2805 8.95585C19.5718 9.39971 19.7174 9.88966 19.7174 10.4257V12H7.28261ZM21.6304 12V10.385C21.6304 9.95434 21.5801 9.54846 21.4795 9.16738C21.3787 8.78649 21.2276 8.42717 21.0262 8.0894C21.2479 8.05124 21.4599 8.02557 21.662 8.0124C21.8642 7.99924 22.0638 7.99265 22.2609 7.99265C23.5232 7.99265 24.5453 8.23453 25.3272 8.71827C26.1091 9.20182 26.5 9.8304 26.5 10.604V12H21.6304ZM9.0653 10.2826H17.9522V10.1615C17.8363 9.69912 17.3552 9.31012 16.5087 8.99449C15.6623 8.67886 14.6594 8.52105 13.5 8.52105C12.3406 8.52105 11.3377 8.67886 10.4913 8.99449C9.64484 9.31012 9.16949 9.69912 9.0653 10.1615V10.2826ZM4.74704 6.88061C4.21423 6.88061 3.75904 6.68874 3.38148 6.30499C3.00391 5.92124 2.81513 5.45992 2.81513 4.92102C2.81513 4.37507 3.00467 3.91384 3.38374 3.53734C3.76262 3.16084 4.21809 2.97259 4.75015 2.97259C5.28918 2.97259 5.74635 3.16084 6.12165 3.53734C6.49715 3.91384 6.68489 4.37621 6.68489 4.92446C6.68489 5.45648 6.49912 5.91551 6.12759 6.30155C5.75624 6.68759 5.29606 6.88061 4.74704 6.88061ZM22.2609 6.88061C21.7333 6.88061 21.279 6.68759 20.8978 6.30155C20.5167 5.91551 20.3261 5.45648 20.3261 4.92446C20.3261 4.37621 20.5167 3.91384 20.8978 3.53734C21.279 3.16084 21.734 2.97259 22.2628 2.97259C22.8079 2.97259 23.2663 3.16084 23.638 3.53734C24.0097 3.91384 24.1956 4.37507 24.1956 4.92102C24.1956 5.45992 24.0102 5.92124 23.6394 6.30499C23.2687 6.68874 22.8091 6.88061 22.2609 6.88061ZM13.504 5.9449C12.6897 5.9449 11.9963 5.65589 11.424 5.07788C10.8516 4.50006 10.5654 3.7983 10.5654 2.97259C10.5654 2.13029 10.8506 1.42433 11.4211 0.854709C11.9918 0.284903 12.6848 0 13.5 0C14.3314 0 15.0284 0.284522 15.591 0.853565C16.1534 1.42242 16.4346 2.12742 16.4346 2.96859C16.4346 3.79315 16.1538 4.49538 15.5922 5.0753C15.0303 5.65503 14.3343 5.9449 13.504 5.9449ZM13.5054 4.22746C13.8511 4.22746 14.1431 4.10495 14.3815 3.85993C14.62 3.61472 14.7392 3.31703 14.7392 2.96687C14.7392 2.61689 14.6204 2.32111 14.3829 2.07953C14.1453 1.83813 13.851 1.71743 13.5 1.71743C13.158 1.71743 12.866 1.83775 12.6239 2.07838C12.3818 2.31882 12.2608 2.61689 12.2608 2.97259C12.2608 3.31894 12.3818 3.61472 12.6239 3.85993C12.866 4.10495 13.1598 4.22746 13.5054 4.22746Z" fill="#FAFAFA"/>
</svg>
