<svg width="24" height="24" viewBox="0 0 24 24" fill="none" xmlns="http://www.w3.org/2000/svg">
<path d="M15.24 2H11.346C9.582 2 8.184 2 7.091 2.148C5.965 2.3 5.054 2.62 4.336 3.341C3.617 4.062 3.298 4.977 3.147 6.107C3 7.205 3 8.608 3 10.379V16.217C3 17.725 3.92 19.017 5.227 19.559C5.16 18.649 5.16 17.374 5.16 16.312V11.302C5.16 10.021 5.16 8.916 5.278 8.032C5.405 7.084 5.691 6.176 6.425 5.439C7.159 4.702 8.064 4.415 9.008 4.287C9.888 4.169 10.988 4.169 12.265 4.169H15.335C16.611 4.169 17.709 4.169 18.59 4.287C18.3261 3.61329 17.8653 3.03474 17.2678 2.62678C16.6702 2.21883 15.9635 2.00041 15.24 2Z" fill="#0E0D0D" fill-opacity="0.5"/>
<path d="M6.6001 11.3968C6.6001 8.67077 6.6001 7.30777 7.4441 6.46077C8.2871 5.61377 9.6441 5.61377 12.3601 5.61377H15.2401C17.9551 5.61377 19.3131 5.61377 20.1571 6.46077C21.0011 7.30777 21.0001 8.67077 21.0001 11.3968V16.2168C21.0001 18.9428 21.0001 20.3058 20.1571 21.1528C19.3131 21.9998 17.9551 21.9998 15.2401 21.9998H12.3601C9.6451 21.9998 8.2871 21.9998 7.4441 21.1528C6.6001 20.3058 6.6001 18.9428 6.6001 16.2168V11.3968Z" fill="#0E0D0D" fill-opacity="0.5"/>
</svg>
