<svg width="14" height="16" viewBox="0 0 14 16" fill="none" xmlns="http://www.w3.org/2000/svg">
<path d="M4.54813 12.5835C4.12715 12.5835 3.77083 12.4377 3.47917 12.146C3.1875 11.8543 3.04167 11.498 3.04167 11.077V1.58995C3.04167 1.16898 3.1875 0.812663 3.47917 0.520996C3.77083 0.229329 4.12715 0.0834961 4.54813 0.0834961H11.5352C11.9562 0.0834961 12.3125 0.229329 12.6042 0.520996C12.8958 0.812663 13.0417 1.16898 13.0417 1.58995V11.077C13.0417 11.498 12.8958 11.8543 12.6042 12.146C12.3125 12.4377 11.9562 12.5835 11.5352 12.5835H4.54813ZM4.54813 11.3335H11.5352C11.5994 11.3335 11.6581 11.3068 11.7115 11.2533C11.7649 11.2 11.7917 11.1412 11.7917 11.077V1.58995C11.7917 1.52579 11.7649 1.46704 11.7115 1.4137C11.6581 1.36023 11.5994 1.3335 11.5352 1.3335H4.54813C4.48396 1.3335 4.42521 1.36023 4.37188 1.4137C4.3184 1.46704 4.29167 1.52579 4.29167 1.58995V11.077C4.29167 11.1412 4.3184 11.2 4.37188 11.2533C4.42521 11.3068 4.48396 11.3335 4.54813 11.3335ZM1.63146 15.5002C1.21049 15.5002 0.854167 15.3543 0.5625 15.0627C0.270833 14.771 0.125 14.4147 0.125 13.9937V3.25662H1.375V13.9937C1.375 14.0579 1.40174 14.1166 1.45521 14.17C1.50854 14.2234 1.56729 14.2502 1.63146 14.2502H9.86854V15.5002H1.63146Z" fill="#FAFAFA"/>
</svg>
