<svg width="14" height="14" viewBox="0 0 14 14" fill="none" xmlns="http://www.w3.org/2000/svg">
<path d="M4.98367 2.67869C4.98367 2.58701 4.94725 2.49908 4.88242 2.43425C4.81759 2.36943 4.72967 2.33301 4.63799 2.33301C4.54631 2.33301 4.45838 2.36943 4.39356 2.43425C4.32873 2.49908 4.29231 2.58701 4.29231 2.67869V3.40692C3.62861 3.45992 3.19351 3.5899 2.87364 3.91023C2.55331 4.23009 2.42334 4.66565 2.36987 5.32889H11.5152C11.4617 4.66519 11.3317 4.23009 11.0114 3.91023C10.6915 3.5899 10.256 3.45992 9.59272 3.40646V2.67869C9.59272 2.58701 9.5563 2.49908 9.49147 2.43425C9.42665 2.36943 9.33872 2.33301 9.24704 2.33301C9.15536 2.33301 9.06744 2.36943 9.00261 2.43425C8.93778 2.49908 8.90136 2.58701 8.90136 2.67869V3.37604C8.59486 3.37004 8.25103 3.37004 7.86433 3.37004H6.0207C5.634 3.37004 5.29017 3.37004 4.98367 3.37604V2.67869Z" fill="#F05A60"/>
<path fill-rule="evenodd" clip-rule="evenodd" d="M2.33325 7.05754C2.33325 6.67085 2.33325 6.32701 2.33924 6.02051H11.5454C11.5514 6.32701 11.5514 6.67085 11.5514 7.05754V7.97936C11.5514 9.71743 11.5514 10.5867 11.0112 11.1264C10.4715 11.6666 9.60219 11.6666 7.86412 11.6666H6.02049C4.28242 11.6666 3.41315 11.6666 2.87343 11.1264C2.33325 10.5867 2.33325 9.71743 2.33325 7.97936V7.05754ZM9.24683 7.97936C9.36907 7.97936 9.48631 7.9308 9.57274 7.84436C9.65918 7.75792 9.70774 7.64069 9.70774 7.51845C9.70774 7.39621 9.65918 7.27898 9.57274 7.19254C9.48631 7.1061 9.36907 7.05754 9.24683 7.05754C9.12459 7.05754 9.00736 7.1061 8.92092 7.19254C8.83449 7.27898 8.78593 7.39621 8.78593 7.51845C8.78593 7.64069 8.83449 7.75792 8.92092 7.84436C9.00736 7.9308 9.12459 7.97936 9.24683 7.97936ZM9.24683 9.82298C9.36907 9.82298 9.48631 9.77442 9.57274 9.68798C9.65918 9.60154 9.70774 9.48431 9.70774 9.36207C9.70774 9.23983 9.65918 9.1226 9.57274 9.03616C9.48631 8.94973 9.36907 8.90117 9.24683 8.90117C9.12459 8.90117 9.00736 8.94973 8.92092 9.03616C8.83449 9.1226 8.78593 9.23983 8.78593 9.36207C8.78593 9.48431 8.83449 9.60154 8.92092 9.68798C9.00736 9.77442 9.12459 9.82298 9.24683 9.82298ZM7.40321 7.51845C7.40321 7.64069 7.35465 7.75792 7.26821 7.84436C7.18178 7.9308 7.06455 7.97936 6.94231 7.97936C6.82007 7.97936 6.70283 7.9308 6.6164 7.84436C6.52996 7.75792 6.4814 7.64069 6.4814 7.51845C6.4814 7.39621 6.52996 7.27898 6.6164 7.19254C6.70283 7.1061 6.82007 7.05754 6.94231 7.05754C7.06455 7.05754 7.18178 7.1061 7.26821 7.19254C7.35465 7.27898 7.40321 7.39621 7.40321 7.51845ZM7.40321 9.36207C7.40321 9.48431 7.35465 9.60154 7.26821 9.68798C7.18178 9.77442 7.06455 9.82298 6.94231 9.82298C6.82007 9.82298 6.70283 9.77442 6.6164 9.68798C6.52996 9.60154 6.4814 9.48431 6.4814 9.36207C6.4814 9.23983 6.52996 9.1226 6.6164 9.03616C6.70283 8.94973 6.82007 8.90117 6.94231 8.90117C7.06455 8.90117 7.18178 8.94973 7.26821 9.03616C7.35465 9.1226 7.40321 9.23983 7.40321 9.36207ZM4.63778 7.97936C4.76002 7.97936 4.87725 7.9308 4.96369 7.84436C5.05012 7.75792 5.09868 7.64069 5.09868 7.51845C5.09868 7.39621 5.05012 7.27898 4.96369 7.19254C4.87725 7.1061 4.76002 7.05754 4.63778 7.05754C4.51554 7.05754 4.39831 7.1061 4.31187 7.19254C4.22543 7.27898 4.17687 7.39621 4.17687 7.51845C4.17687 7.64069 4.22543 7.75792 4.31187 7.84436C4.39831 7.9308 4.51554 7.97936 4.63778 7.97936ZM4.63778 9.82298C4.76002 9.82298 4.87725 9.77442 4.96369 9.68798C5.05012 9.60154 5.09868 9.48431 5.09868 9.36207C5.09868 9.23983 5.05012 9.1226 4.96369 9.03616C4.87725 8.94973 4.76002 8.90117 4.63778 8.90117C4.51554 8.90117 4.39831 8.94973 4.31187 9.03616C4.22543 9.1226 4.17687 9.23983 4.17687 9.36207C4.17687 9.48431 4.22543 9.60154 4.31187 9.68798C4.39831 9.77442 4.51554 9.82298 4.63778 9.82298Z" fill="#F05A60"/>
</svg>
