<svg width="22" height="17" viewBox="0 0 22 17" fill="none" xmlns="http://www.w3.org/2000/svg">
<path d="M2.38533 14.4697H3.97879V13.2983H2.39989C1.85418 13.2983 1.57769 13.0218 1.57769 12.4761V2.97357C1.57769 2.42787 1.85418 2.1441 2.39989 2.1441H13.0448C13.5832 2.1441 13.8742 2.42787 13.8742 2.97357V13.6548L15.0456 13.0145V2.95174C15.0456 1.6566 14.3617 0.972656 13.0666 0.972656H2.38533C1.08292 0.972656 0.40625 1.6566 0.40625 2.95174V12.4979C0.40625 13.7931 1.08292 14.4697 2.38533 14.4697ZM14.4054 6.16048H16.9083C17.2794 6.16048 17.5414 6.22596 17.8396 6.55338L20.1243 9.12181C20.3208 9.34012 20.4227 9.64572 20.4227 9.90761V12.4761C20.4227 13.0218 20.1388 13.2983 19.5932 13.2983H18.4217V14.4697H19.615C20.9101 14.4697 21.5941 13.7931 21.5941 12.4979V9.92947C21.5941 9.21644 21.4777 8.88172 21.0775 8.43058L18.6036 5.6366C18.1744 5.15638 17.6942 4.98903 16.9811 4.98903H14.4054V6.16048ZM16.4063 9.99497H19.5786C19.5786 9.82031 19.5131 9.72575 19.404 9.60207L17.2358 7.16458C17.0757 6.99719 16.8865 6.8881 16.6827 6.8881H15.7805V9.3765C15.7805 9.76214 16.0206 9.99497 16.4063 9.99497ZM5.80507 16.4997C7.17295 16.4997 8.2862 15.3865 8.2862 14.0113C8.2862 12.6434 7.17295 11.5302 5.80507 11.5302C4.4299 11.5302 3.30939 12.6434 3.30939 14.0113C3.30939 15.3865 4.4299 16.4997 5.80507 16.4997ZM5.80507 15.5102C4.97561 15.5102 4.29893 14.8408 4.29893 14.0113C4.29893 13.1891 4.97561 12.5125 5.80507 12.5125C6.62725 12.5125 7.29669 13.1891 7.29669 14.0113C7.29669 14.8408 6.62725 15.5102 5.80507 15.5102ZM16.2898 16.4997C17.665 16.4997 18.771 15.3865 18.771 14.0113C18.771 12.6434 17.665 11.5302 16.2898 11.5302C14.9147 11.5302 13.8014 12.6434 13.8014 14.0113C13.8014 15.3865 14.9147 16.4997 16.2898 16.4997ZM16.2898 15.5102C15.4677 15.5102 14.791 14.8408 14.791 14.0113C14.791 13.1891 15.4677 12.5125 16.2898 12.5125C17.1048 12.5125 17.7815 13.1891 17.7815 14.0113C17.7815 14.8408 17.1193 15.5102 16.2898 15.5102ZM7.7405 14.4697H14.3763V13.2983H7.7405V14.4697Z" fill="#8E8E93"/>
</svg>
