<svg width="18" height="12" viewBox="0 0 18 12" fill="none" xmlns="http://www.w3.org/2000/svg">
<path d="M9.00194 9.49457C9.9768 9.49457 10.8048 9.15464 11.4858 8.47479C12.1669 7.79493 12.5074 6.96936 12.5074 5.99807C12.5074 5.02679 12.1663 4.20186 11.4839 3.52329C10.8015 2.84471 9.97292 2.50543 8.99806 2.50543C8.0232 2.50543 7.19524 2.84536 6.51417 3.52521C5.8331 4.20507 5.49257 5.03064 5.49257 6.00193C5.49257 6.97321 5.83375 7.79814 6.51611 8.47671C7.19847 9.15529 8.02707 9.49457 9.00194 9.49457ZM9 8.31429C8.35478 8.31429 7.80634 8.08929 7.35468 7.63929C6.90302 7.18929 6.6772 6.64286 6.6772 6C6.6772 5.35714 6.90302 4.81071 7.35468 4.36071C7.80634 3.91071 8.35478 3.68571 9 3.68571C9.64522 3.68571 10.1937 3.91071 10.6453 4.36071C11.097 4.81071 11.3228 5.35714 11.3228 6C11.3228 6.64286 11.097 7.18929 10.6453 7.63929C10.1937 8.08929 9.64522 8.31429 9 8.31429ZM9.00107 12C7.02282 12 5.22028 11.4563 3.59346 10.3689C1.96664 9.28157 0.768819 7.82529 0 6C0.768819 4.17471 1.96621 2.71843 3.59217 1.63114C5.21828 0.543714 7.02053 0 8.99892 0C10.9772 0 12.7797 0.543714 14.4065 1.63114C16.0334 2.71843 17.2312 4.17471 18 6C17.2312 7.82529 16.0338 9.28157 14.4078 10.3689C12.7817 11.4563 10.9795 12 9.00107 12ZM9 10.7143C10.6202 10.7143 12.1078 10.2893 13.4628 9.43929C14.8178 8.58929 15.8537 7.44286 16.5706 6C15.8537 4.55714 14.8178 3.41071 13.4628 2.56071C12.1078 1.71071 10.6202 1.28571 9 1.28571C7.37977 1.28571 5.89218 1.71071 4.53721 2.56071C3.18224 3.41071 2.1463 4.55714 1.42938 6C2.1463 7.44286 3.18224 8.58929 4.53721 9.43929C5.89218 10.2893 7.37977 10.7143 9 10.7143Z" fill="#FAFAFA"/>
</svg>
