<svg width="24" height="25" viewBox="0 0 24 25" fill="none" xmlns="http://www.w3.org/2000/svg">
<path fill-rule="evenodd" clip-rule="evenodd" d="M20.53 5.03033C20.6625 4.88816 20.7346 4.70011 20.7312 4.50581C20.7278 4.31151 20.6491 4.12613 20.5117 3.98871C20.3742 3.8513 20.1889 3.77259 19.9946 3.76916C19.8003 3.76573 19.6122 3.83785 19.47 3.97033L3.47003 19.9703C3.39634 20.039 3.33724 20.1218 3.29625 20.2138C3.25526 20.3058 3.23322 20.4051 3.23144 20.5058C3.22966 20.6065 3.24819 20.7065 3.28591 20.7999C3.32363 20.8933 3.37977 20.9782 3.45099 21.0494C3.52221 21.1206 3.60705 21.1767 3.70043 21.2145C3.79382 21.2522 3.89385 21.2707 3.99455 21.2689C4.09526 21.2671 4.19457 21.2451 4.28657 21.2041C4.37857 21.1631 4.46137 21.104 4.53003 21.0303L7.37703 18.1833C8.74403 18.8273 10.317 19.2503 12 19.2503C14.684 19.2503 17.09 18.1733 18.82 16.8453C19.687 16.1803 20.403 15.4383 20.909 14.7093C21.401 14.0003 21.75 13.2233 21.75 12.5003C21.75 11.7773 21.4 11.0003 20.909 10.2913C20.403 9.56234 19.687 8.82133 18.821 8.15533C18.5584 7.95333 18.281 7.759 17.989 7.57233L20.53 5.03033ZM16.9 8.66133L15.129 10.4323C15.6065 11.1535 15.82 12.0175 15.7334 12.878C15.6469 13.7385 15.2655 14.5427 14.6539 15.1542C14.0424 15.7658 13.2382 16.1472 12.3777 16.2337C11.5172 16.3203 10.6532 16.1068 9.93203 15.6293L8.51503 17.0453C9.62055 17.5023 10.8038 17.7417 12 17.7503C14.287 17.7503 16.38 16.8273 17.907 15.6553C18.669 15.0703 19.271 14.4373 19.677 13.8543C20.096 13.2503 20.25 12.7773 20.25 12.5003C20.25 12.2233 20.096 11.7503 19.677 11.1463C19.271 10.5633 18.669 9.93034 17.907 9.34534C17.5937 9.10467 17.2587 8.87667 16.9 8.66133ZM11.029 14.5313C11.4489 14.7319 11.9206 14.7973 12.3792 14.7186C12.8378 14.6399 13.2607 14.421 13.5897 14.092C13.9187 13.763 14.1376 13.3401 14.2163 12.8815C14.295 12.4229 14.2296 11.9512 14.029 11.5313L11.029 14.5313Z" fill="#0E0D0D"/>
<path d="M12 5.75049C13.032 5.75049 14.024 5.91049 14.951 6.18149C14.9916 6.1936 15.0283 6.21611 15.0575 6.24678C15.0867 6.27746 15.1074 6.31523 15.1175 6.35636C15.1276 6.39749 15.1268 6.44055 15.1151 6.48127C15.1035 6.52199 15.0814 6.55895 15.051 6.58849L14.227 7.41349C14.1966 7.44416 14.1589 7.46646 14.1173 7.4782C14.0758 7.48994 14.0319 7.49073 13.99 7.48049C13.3373 7.33001 12.6698 7.25286 12 7.25049C9.713 7.25049 7.62 8.17349 6.093 9.34549C5.331 9.93049 4.729 10.5635 4.323 11.1465C3.904 11.7505 3.75 12.2235 3.75 12.5005C3.75 12.7775 3.904 13.2505 4.323 13.8545C4.677 14.3645 5.181 14.9115 5.811 15.4315C5.927 15.5265 5.938 15.7015 5.831 15.8085L5.123 16.5175C5.07964 16.5615 5.02132 16.5875 4.95962 16.5905C4.89793 16.5935 4.83738 16.5731 4.79 16.5335C4.14601 16.0028 3.57476 15.3895 3.091 14.7095C2.6 14.0005 2.25 13.2235 2.25 12.5005C2.25 11.7775 2.6 11.0005 3.091 10.2915C3.597 9.56249 4.313 8.82149 5.179 8.15549C6.91 6.82749 9.316 5.75049 12 5.75049Z" fill="#0E0D0D"/>
<path d="M12 8.75049C12.1186 8.75049 12.2356 8.75582 12.351 8.76649C12.548 8.78549 12.619 9.02049 12.48 9.16049L11.267 10.3725C10.9441 10.4844 10.6508 10.6681 10.4092 10.9097C10.1676 11.1514 9.98391 11.4446 9.87197 11.7675L8.65998 12.9805C8.51998 13.1205 8.28497 13.0485 8.26597 12.8515C8.21711 12.3317 8.27732 11.8074 8.44275 11.3122C8.60819 10.817 8.8752 10.3619 9.2267 9.97581C9.57819 9.58977 10.0064 9.28138 10.484 9.07038C10.9615 8.85938 11.4779 8.75042 12 8.75049Z" fill="#0E0D0D"/>
</svg>
