<svg width="16" height="15" viewBox="0 0 16 15" fill="none" xmlns="http://www.w3.org/2000/svg">
<path d="M10.8302 7.72986L9.98792 6.88761C10.1004 6.26648 9.92323 5.70805 9.45636 5.2123C8.98961 4.71667 8.4168 4.52511 7.73792 4.63761L6.89567 3.79536C7.06492 3.71936 7.23848 3.66236 7.41636 3.62436C7.59423 3.58636 7.78892 3.56736 8.00042 3.56736C8.85142 3.56736 9.5738 3.86423 10.1675 4.45798C10.7613 5.05173 11.0582 5.77411 11.0582 6.62511C11.0582 6.83661 11.0392 7.03373 11.0012 7.21648C10.9632 7.39911 10.9062 7.57023 10.8302 7.72986ZM13.2157 10.0635L12.3879 9.28761C12.8629 8.92511 13.2848 8.52823 13.6535 8.09698C14.0223 7.66573 14.3379 7.17511 14.6004 6.62511C13.9754 5.36261 13.0785 4.35948 11.9098 3.61573C10.741 2.87198 9.43792 2.50011 8.00042 2.50011C7.63792 2.50011 7.28167 2.52511 6.93167 2.57511C6.58167 2.62511 6.23792 2.70011 5.90042 2.80011L5.02648 1.92617C5.50048 1.73767 5.98461 1.59873 6.47886 1.50936C6.97311 1.41986 7.4803 1.37511 8.00042 1.37511C9.75805 1.37511 11.3431 1.85973 12.7556 2.82898C14.1681 3.79823 15.1984 5.06361 15.8465 6.62511C15.5687 7.29523 15.2098 7.92073 14.7699 8.50161C14.3299 9.08236 13.8119 9.60298 13.2157 10.0635ZM13.8215 14.402L10.787 11.3904C10.4024 11.5328 9.97617 11.6492 9.5083 11.7395C9.04055 11.8299 8.53792 11.8751 8.00042 11.8751C6.23792 11.8751 4.65286 11.3905 3.24523 10.4212C1.83748 9.45198 0.807172 8.18661 0.154297 6.62511C0.431172 5.96261 0.788859 5.34461 1.22736 4.77111C1.66586 4.19748 2.14855 3.70011 2.67542 3.27898L0.598484 1.17898L1.38898 0.388672L14.6119 13.6115L13.8215 14.402ZM3.46592 4.0693C3.06967 4.38467 2.6843 4.7638 2.3098 5.20667C1.9353 5.64942 1.63217 6.12223 1.40042 6.62511C2.02542 7.88761 2.9223 8.89073 4.09105 9.63448C5.2598 10.3782 6.56292 10.7501 8.00042 10.7501C8.3418 10.7501 8.68174 10.7212 9.02024 10.6635C9.35861 10.6059 9.64561 10.5463 9.88124 10.4848L8.93211 9.51261C8.80423 9.56448 8.65617 9.6058 8.48792 9.63655C8.31967 9.66742 8.15717 9.68286 8.00042 9.68286C7.14942 9.68286 6.42705 9.38598 5.8333 8.79223C5.23955 8.19848 4.94267 7.47611 4.94267 6.62511C4.94267 6.47323 4.95811 6.31436 4.98898 6.14848C5.01973 5.98261 5.06105 5.83092 5.11292 5.69342L3.46592 4.0693Z" fill="#F05A60"/>
</svg>
