<svg width="21" height="20" viewBox="0 0 21 20" fill="none" xmlns="http://www.w3.org/2000/svg">
<path d="M10.502 12.9808C11.4463 12.9808 12.2483 12.6503 12.9081 11.9894C13.5678 11.3284 13.8976 10.5258 13.8976 9.58146C13.8976 8.63715 13.5672 7.83514 12.9062 7.17542C12.2452 6.51569 11.4426 6.18583 10.4983 6.18583C9.55396 6.18583 8.75195 6.51632 8.09223 7.17729C7.4325 7.83826 7.10264 8.6409 7.10264 9.58521C7.10264 10.5295 7.43313 11.3315 8.0941 11.9913C8.75507 12.651 9.55771 12.9808 10.502 12.9808ZM10.5001 11.8333C9.87514 11.8333 9.34389 11.6146 8.90639 11.1771C8.46889 10.7396 8.25014 10.2083 8.25014 9.58333C8.25014 8.95833 8.46889 8.42708 8.90639 7.98958C9.34389 7.55208 9.87514 7.33333 10.5001 7.33333C11.1251 7.33333 11.6564 7.55208 12.0939 7.98958C12.5314 8.42708 12.7501 8.95833 12.7501 9.58333C12.7501 10.2083 12.5314 10.7396 12.0939 11.1771C11.6564 11.6146 11.1251 11.8333 10.5001 11.8333ZM10.5012 15.4167C8.58493 15.4167 6.83889 14.8881 5.26306 13.8308C3.68723 12.7738 2.52695 11.3579 1.78223 9.58333C2.52695 7.80875 3.68681 6.39292 5.26181 5.33583C6.83695 4.27861 8.58271 3.75 10.4991 3.75C12.4154 3.75 14.1614 4.27861 15.7372 5.33583C17.3131 6.39292 18.4733 7.80875 19.2181 9.58333C18.4733 11.3579 17.3135 12.7738 15.7385 13.8308C14.1633 14.8881 12.4176 15.4167 10.5012 15.4167ZM10.5001 14.1667C12.0696 14.1667 13.5106 13.7535 14.8231 12.9271C16.1356 12.1007 17.139 10.9861 17.8335 9.58333C17.139 8.18056 16.1356 7.06597 14.8231 6.23958C13.5106 5.41319 12.0696 5 10.5001 5C8.9307 5 7.48973 5.41319 6.17723 6.23958C4.86473 7.06597 3.86125 8.18056 3.16681 9.58333C3.86125 10.9861 4.86473 12.1007 6.17723 12.9271C7.48973 13.7535 8.9307 14.1667 10.5001 14.1667Z" fill="#0E0D0D"/>
</svg>
