<svg width="24" height="24" viewBox="0 0 24 24" fill="none" xmlns="http://www.w3.org/2000/svg">
<path fill-rule="evenodd" clip-rule="evenodd" d="M2.538 4.113C2.70024 4.02861 2.88252 3.99033 3.06501 4.00232C3.24749 4.01431 3.42319 4.07611 3.573 4.181L13.573 11.181C13.7046 11.2732 13.8121 11.3958 13.8863 11.5384C13.9605 11.6809 13.9992 11.8393 13.9992 12C13.9992 12.1607 13.9605 12.3191 13.8863 12.4616C13.8121 12.6042 13.7046 12.7268 13.573 12.819L3.573 19.819C3.42316 19.9238 3.24746 19.9854 3.06502 19.9973C2.88257 20.0092 2.70035 19.9709 2.53819 19.8864C2.37602 19.802 2.2401 19.6747 2.14521 19.5184C2.05033 19.3621 2.0001 19.1828 2 19V5C1.99998 4.81709 2.05012 4.63767 2.14498 4.48128C2.23984 4.32489 2.37578 4.19751 2.538 4.113ZM16 5.8C16 5.32261 16.1896 4.86477 16.5272 4.52721C16.8648 4.18964 17.3226 4 17.8 4H19.2C19.4364 4 19.6704 4.04656 19.8888 4.13702C20.1072 4.22748 20.3056 4.36006 20.4728 4.52721C20.6399 4.69435 20.7725 4.89278 20.863 5.11117C20.9534 5.32956 21 5.56362 21 5.8V18.2C21 18.4364 20.9534 18.6704 20.863 18.8888C20.7725 19.1072 20.6399 19.3056 20.4728 19.4728C20.3056 19.6399 20.1072 19.7725 19.8888 19.863C19.6704 19.9534 19.4364 20 19.2 20H17.8C17.3226 20 16.8648 19.8104 16.5272 19.4728C16.1896 19.1352 16 18.6774 16 18.2V5.8Z" fill="white" fill-opacity="0.6"/>
</svg>
