<svg width="20" height="14" viewBox="0 0 20 14" fill="none" xmlns="http://www.w3.org/2000/svg">
<path d="M10.4967 6.70182C10.8513 6.31613 11.1136 5.87328 11.2836 5.37328C11.4535 4.87328 11.5384 4.3578 11.5384 3.82682C11.5384 3.29585 11.4535 2.78036 11.2836 2.28036C11.1136 1.78036 10.8513 1.33752 10.4967 0.951823C11.2286 1.03627 11.8362 1.35224 12.3197 1.89974C12.803 2.44738 13.0447 3.08974 13.0447 3.82682C13.0447 4.56405 12.803 5.20641 12.3197 5.75391C11.8362 6.30141 11.2286 6.61738 10.4967 6.70182ZM14.8717 13.0897V11.1345C14.8717 10.6802 14.7793 10.248 14.5945 9.83786C14.4096 9.42773 14.1473 9.07578 13.8076 8.78203C14.4465 8.99467 15.0346 9.28155 15.572 9.64266C16.1093 10.0038 16.378 10.5011 16.378 11.1345V13.0897H14.8717ZM16.378 7.62495V5.95828H14.7113V4.70828H16.378V3.04161H17.628V4.70828H19.2947V5.95828H17.628V7.62495H16.378ZM6.95508 6.74349C6.153 6.74349 5.46633 6.45793 4.89508 5.88682C4.32397 5.31557 4.03841 4.62891 4.03841 3.82682C4.03841 3.02474 4.32397 2.33814 4.89508 1.76703C5.46633 1.19578 6.153 0.910156 6.95508 0.910156C7.75716 0.910156 8.44376 1.19578 9.01487 1.76703C9.58612 2.33814 9.87175 3.02474 9.87175 3.82682C9.87175 4.62891 9.58612 5.31557 9.01487 5.88682C8.44376 6.45793 7.75716 6.74349 6.95508 6.74349ZM0.705078 13.0897V11.237C0.705078 10.829 0.815912 10.4511 1.03758 10.1033C1.25924 9.7555 1.55543 9.48814 1.92612 9.3012C2.74987 8.89745 3.58084 8.5946 4.41904 8.39266C5.25709 8.19071 6.10244 8.08974 6.95508 8.08974C7.80758 8.08974 8.65293 8.19071 9.49112 8.39266C10.3292 8.5946 11.1601 8.89745 11.9838 9.3012C12.3545 9.48814 12.6507 9.7555 12.8724 10.1033C13.0942 10.4511 13.2051 10.829 13.2051 11.237V13.0897H0.705078ZM6.95508 5.49349C7.41341 5.49349 7.80577 5.3303 8.13216 5.00391C8.45855 4.67752 8.62175 4.28516 8.62175 3.82682C8.62175 3.36849 8.45855 2.97613 8.13216 2.64974C7.80577 2.32335 7.41341 2.16016 6.95508 2.16016C6.49675 2.16016 6.10438 2.32335 5.778 2.64974C5.45161 2.97613 5.28841 3.36849 5.28841 3.82682C5.28841 4.28516 5.45161 4.67752 5.778 5.00391C6.10438 5.3303 6.49675 5.49349 6.95508 5.49349ZM1.95508 11.8397H11.9551V11.237C11.9551 11.0683 11.9062 10.912 11.8084 10.7683C11.7106 10.6247 11.5779 10.5074 11.4101 10.4166C10.6922 10.063 9.96015 9.79509 9.21404 9.61287C8.46779 9.43078 7.7148 9.33974 6.95508 9.33974C6.19522 9.33974 5.44223 9.43078 4.69612 9.61287C3.94987 9.79509 3.21779 10.063 2.49987 10.4166C2.33209 10.5074 2.19938 10.6247 2.10174 10.7683C2.00397 10.912 1.95508 11.0683 1.95508 11.237V11.8397Z" fill="#FAFAFA"/>
</svg>
