<svg width="17" height="18" viewBox="0 0 17 18" fill="none" xmlns="http://www.w3.org/2000/svg">
<path d="M16.7919 8.24996H9.15023V10.525H14.5752C14.3002 13.7 11.6586 15.0583 9.15856 15.0583C5.96689 15.0583 3.16689 12.5416 3.16689 8.99996C3.16689 5.58329 5.83356 2.94163 9.16689 2.94163C11.7419 2.94163 13.2502 4.58329 13.2502 4.58329L14.8336 2.93329C14.8336 2.93329 12.8002 0.666626 9.08356 0.666626C4.35023 0.666626 0.691895 4.66663 0.691895 8.99996C0.691895 13.2083 4.13356 17.3333 9.20856 17.3333C13.6669 17.3333 16.9169 14.275 16.9169 9.75829C16.9169 8.79996 16.7919 8.24996 16.7919 8.24996Z" fill="#FAFAFA"/>
</svg>
