<svg width="29" height="31" viewBox="0 0 29 31" fill="none" xmlns="http://www.w3.org/2000/svg">
<path d="M28.6354 14.1875H15.2625V18.1687H24.7563C24.275 23.725 19.6521 26.102 15.2771 26.102C9.6917 26.102 4.7917 21.6979 4.7917 15.5C4.7917 9.52079 9.45837 4.89788 15.2917 4.89788C19.7979 4.89788 22.4375 7.77079 22.4375 7.77079L25.2084 4.88329C25.2084 4.88329 21.65 0.916626 15.1459 0.916626C6.86253 0.916626 0.460449 7.91663 0.460449 15.5C0.460449 22.8645 6.48337 30.0833 15.3646 30.0833C23.1667 30.0833 28.8542 24.7312 28.8542 16.827C28.8542 15.15 28.6354 14.1875 28.6354 14.1875Z" fill="#0E0D0D"/>
</svg>
