<svg width="52" height="52" viewBox="0 0 52 52" fill="none" xmlns="http://www.w3.org/2000/svg">
<rect x="1" y="1" width="50" height="50" rx="25" stroke="#0E0D0D" stroke-width="2"/>
<path d="M35.5486 24.1816H26.2281V28.0444H31.5918C31.0926 30.499 29.0029 31.9093 26.2281 31.9093C25.4517 31.9107 24.6826 31.7587 23.965 31.4622C23.2475 31.1656 22.5955 30.7303 22.0465 30.1812C21.4976 29.6322 21.0624 28.9801 20.766 28.2625C20.4696 27.5449 20.3178 26.7758 20.3192 25.9994C20.3179 25.223 20.4698 24.4541 20.7663 23.7366C21.0628 23.0191 21.498 22.3672 22.0469 21.8182C22.5959 21.2693 23.2478 20.8341 23.9653 20.5376C24.6828 20.2411 25.4518 20.0892 26.2281 20.0905C27.6373 20.0905 28.9111 20.5908 29.9106 21.4091L32.8209 18.5C31.0479 16.9542 28.7745 16.0005 26.2281 16.0005C24.9138 15.9967 23.6117 16.2527 22.3967 16.7539C21.1817 17.2551 20.0778 17.9915 19.1485 18.9209C18.2191 19.8502 17.4827 20.9541 16.9815 22.1691C16.4803 23.3841 16.2243 24.6862 16.2281 26.0005C16.2241 27.3148 16.4801 28.617 16.9812 29.832C17.4823 31.0471 18.2188 32.151 19.1482 33.0804C20.0775 34.0098 21.1815 34.7462 22.3966 35.2474C23.6116 35.7485 24.9138 36.0044 26.2281 36.0004C31.2281 36.0004 35.7747 32.3638 35.7747 26.0005C35.7747 25.4095 35.6841 24.7726 35.5486 24.1816Z" fill="#0E0D0D"/>
</svg>
