<svg width="18" height="17" viewBox="0 0 18 17" fill="none" xmlns="http://www.w3.org/2000/svg">
<path d="M8.83323 16.3505L7.83678 15.4548C6.34028 14.0971 5.10272 12.9305 4.12411 11.9549C3.1455 10.9792 2.37001 10.1108 1.79765 9.34972C1.22529 8.58883 0.825436 7.89467 0.598086 7.26724C0.370586 6.63996 0.256836 6.00343 0.256836 5.35764C0.256836 4.07645 0.688815 3.0038 1.55277 2.13969C2.41688 1.27573 3.48953 0.84375 4.77073 0.84375C5.55885 0.84375 6.30364 1.02807 7.0051 1.3967C7.70656 1.76534 8.31593 2.29399 8.83323 2.98266C9.35052 2.29399 9.95989 1.76534 10.6614 1.3967C11.3628 1.02807 12.1076 0.84375 12.8957 0.84375C14.1769 0.84375 15.2496 1.27573 16.1137 2.13969C16.9776 3.0038 17.4096 4.07645 17.4096 5.35764C17.4096 6.00343 17.2959 6.63996 17.0684 7.26724C16.841 7.89467 16.4412 8.58883 15.8688 9.34972C15.2964 10.1108 14.5224 10.9792 13.5466 11.9549C12.571 12.9305 11.332 14.0971 9.82967 15.4548L8.83323 16.3505ZM8.83323 14.5208C10.2777 13.2211 11.4663 12.1071 12.3992 11.1788C13.3321 10.2505 14.0693 9.44414 14.611 8.75953C15.1527 8.07493 15.5288 7.46698 15.7395 6.9357C15.9501 6.40456 16.0554 5.87854 16.0554 5.35764C16.0554 4.45486 15.7545 3.70255 15.1527 3.10069C14.5508 2.49884 13.7985 2.19792 12.8957 2.19792C12.1828 2.19792 11.524 2.40014 10.9191 2.80458C10.3144 3.20918 9.83553 3.77199 9.48255 4.493H8.1839C7.82505 3.76612 7.3447 3.20188 6.74284 2.8003C6.14099 2.39871 5.48362 2.19792 4.77073 2.19792C3.87366 2.19792 3.12278 2.49884 2.51807 3.10069C1.91336 3.70255 1.611 4.45486 1.611 5.35764C1.611 5.87854 1.71633 6.40456 1.92697 6.9357C2.13762 7.46698 2.51378 8.07493 3.05545 8.75953C3.59711 9.44414 4.33438 10.2491 5.26725 11.1745C6.20012 12.0998 7.38878 13.2153 8.83323 14.5208Z" fill="#0E0D0D"/>
</svg>
