<svg width="12" height="11" viewBox="0 0 12 11" fill="none" xmlns="http://www.w3.org/2000/svg">
<path d="M5.99967 10.8572L5.35582 10.2784C4.38885 9.40112 3.5892 8.64731 2.95686 8.01692C2.32453 7.38644 1.82345 6.82532 1.45361 6.33357C1.08378 5.84192 0.825411 5.39338 0.678508 4.98797C0.531508 4.58265 0.458008 4.17135 0.458008 3.75407C0.458008 2.92622 0.737133 2.23312 1.29538 1.67478C1.85373 1.11653 2.54683 0.837402 3.37467 0.837402C3.88392 0.837402 4.36517 0.9565 4.81842 1.19469C5.27167 1.43289 5.66542 1.77448 5.99967 2.21947C6.33392 1.77448 6.72767 1.43289 7.18092 1.19469C7.63417 0.9565 8.11542 0.837402 8.62467 0.837402C9.45252 0.837402 10.1456 1.11653 10.704 1.67478C11.2622 2.23312 11.5413 2.92622 11.5413 3.75407C11.5413 4.17135 11.4678 4.58265 11.3208 4.98797C11.1739 5.39338 10.9156 5.84192 10.5457 6.33357C10.1759 6.82532 9.67574 7.38644 9.04526 8.01692C8.41487 8.64731 7.61429 9.40112 6.64353 10.2784L5.99967 10.8572ZM5.99967 9.6749C6.93301 8.8351 7.70106 8.11526 8.30384 7.5154C8.90662 6.91564 9.38301 6.39458 9.73301 5.95222C10.083 5.50985 10.3261 5.11703 10.4622 4.77374C10.5983 4.43054 10.6663 4.09065 10.6663 3.75407C10.6663 3.17074 10.4719 2.68462 10.083 2.29574C9.69412 1.90685 9.20801 1.7124 8.62467 1.7124C8.16404 1.7124 7.7383 1.84307 7.34747 2.1044C6.95673 2.36583 6.64732 2.72949 6.41924 3.19538H5.58011C5.34824 2.7257 5.03785 2.36112 4.64897 2.10163C4.26008 1.84215 3.83531 1.7124 3.37467 1.7124C2.79504 1.7124 2.30985 1.90685 1.91911 2.29574C1.52838 2.68462 1.33301 3.17074 1.33301 3.75407C1.33301 4.09065 1.40106 4.43054 1.53717 4.77374C1.67329 5.11703 1.91634 5.50985 2.26634 5.95222C2.61634 6.39458 3.09273 6.91472 3.69551 7.51263C4.29829 8.11055 5.06634 8.83131 5.99967 9.6749Z" fill="#0E0D0D" fill-opacity="0.5"/>
</svg>
