<svg width="22" height="20" viewBox="0 0 22 20" fill="none" xmlns="http://www.w3.org/2000/svg">
<path d="M11.3329 19.5853L10.1065 18.4828C8.26466 16.8119 6.74151 15.376 5.53707 14.1753C4.33262 12.9744 3.37818 11.9056 2.67373 10.9689C1.96929 10.0324 1.47716 9.17806 1.19734 8.40583C0.917344 7.6338 0.777344 6.85037 0.777344 6.05556C0.777344 4.4787 1.30901 3.15852 2.37234 2.095C3.43586 1.03167 4.75605 0.5 6.3329 0.5C7.3029 0.5 8.21957 0.726852 9.0829 1.18056C9.94623 1.63426 10.6962 2.28491 11.3329 3.1325C11.9696 2.28491 12.7196 1.63426 13.5829 1.18056C14.4462 0.726852 15.3629 0.5 16.3329 0.5C17.9098 0.5 19.2299 1.03167 20.2935 2.095C21.3568 3.15852 21.8885 4.4787 21.8885 6.05556C21.8885 6.85037 21.7485 7.6338 21.4685 8.40583C21.1886 9.17806 20.6965 10.0324 19.9921 10.9689C19.2876 11.9056 18.3349 12.9744 17.134 14.1753C15.9333 15.376 14.4084 16.8119 12.5593 18.4828L11.3329 19.5853ZM11.3329 17.3333C13.1107 15.7337 14.5736 14.3626 15.7218 13.22C16.8699 12.0776 17.7773 11.0851 18.444 10.2425C19.1107 9.39991 19.5736 8.65167 19.8329 7.99778C20.0922 7.34407 20.2218 6.69667 20.2218 6.05556C20.2218 4.94444 19.8514 4.01852 19.1107 3.27778C18.3699 2.53704 17.444 2.16667 16.3329 2.16667C15.4555 2.16667 14.6446 2.41556 13.9001 2.91333C13.1559 3.4113 12.5665 4.10398 12.1321 4.99139H10.5337C10.0921 4.09676 9.50086 3.40232 8.76012 2.90806C8.01938 2.4138 7.21031 2.16667 6.3329 2.16667C5.22883 2.16667 4.30466 2.53704 3.5604 3.27778C2.81614 4.01852 2.44401 4.94444 2.44401 6.05556C2.44401 6.69667 2.57364 7.34407 2.8329 7.99778C3.09216 8.65167 3.55512 9.39991 4.22179 10.2425C4.88846 11.0851 5.79586 12.0758 6.94401 13.2147C8.09216 14.3536 9.55512 15.7265 11.3329 17.3333Z" fill="#FAFAFA"/>
</svg>
