<svg width="12" height="12" viewBox="0 0 12 12" fill="none" xmlns="http://www.w3.org/2000/svg">
<path d="M6.5833 0.166992V1.33366C9.14413 1.64866 10.9583 3.97616 10.6433 6.53699C10.5145 7.5689 10.0454 8.52841 9.31005 9.26374C8.57472 9.99907 7.61521 10.4682 6.5833 10.597V11.7637C9.79163 11.4137 12.0958 8.53199 11.7458 5.32949C11.4425 2.61116 9.30163 0.458659 6.5833 0.166992ZM5.41663 0.166992C4.2733 0.271992 3.19413 0.721159 2.30747 1.45033L3.14163 2.34866C3.79497 1.82366 4.58247 1.48533 5.41663 1.36866V0.166992ZM1.48497 2.30783C0.752969 3.19136 0.303772 4.27472 0.195801 5.41699H1.36247C1.4733 4.58866 1.79997 3.80116 2.31913 3.14199L1.48497 2.30783ZM0.201634 6.58366C0.318301 7.72699 0.767467 8.80616 1.4908 9.69283L2.31913 8.85866C1.80396 8.19929 1.47555 7.41352 1.3683 6.58366H0.201634ZM3.1183 9.71616L2.30747 10.5153C3.1912 11.2517 4.27293 11.7104 5.41663 11.8337V10.667C4.58677 10.5597 3.80101 10.2313 3.14163 9.71616H3.1183Z" fill="#F05A60"/>
</svg>
