<svg width="28" height="28" viewBox="0 0 28 28" fill="none" xmlns="http://www.w3.org/2000/svg">
<path d="M1.33301 14.0002C1.33301 8.0295 1.33301 5.04283 3.18767 3.18816C5.04234 1.3335 8.02767 1.3335 13.9997 1.3335C19.9703 1.3335 22.957 1.3335 24.8117 3.18816C26.6663 5.04283 26.6663 8.02816 26.6663 14.0002C26.6663 19.9708 26.6663 22.9575 24.8117 24.8122C22.957 26.6668 19.9717 26.6668 13.9997 26.6668C8.02901 26.6668 5.04234 26.6668 3.18767 24.8122C1.33301 22.9575 1.33301 19.9722 1.33301 14.0002Z" stroke="#FAFAFA" stroke-width="1.5" stroke-linecap="round" stroke-linejoin="round"/>
<path d="M21.344 6.66699H21.3307M20 14.0003C20 15.5916 19.3679 17.1177 18.2426 18.243C17.1174 19.3682 15.5913 20.0003 14 20.0003C12.4087 20.0003 10.8826 19.3682 9.75736 18.243C8.63214 17.1177 8 15.5916 8 14.0003C8 12.409 8.63214 10.8829 9.75736 9.75769C10.8826 8.63247 12.4087 8.00033 14 8.00033C15.5913 8.00033 17.1174 8.63247 18.2426 9.75769C19.3679 10.8829 20 12.409 20 14.0003Z" stroke="#FAFAFA" stroke-width="1.5" stroke-linecap="round" stroke-linejoin="round"/>
</svg>
