<svg width="29" height="30" viewBox="0 0 29 30" fill="none" xmlns="http://www.w3.org/2000/svg">
<path d="M14.5 16.75C16.4303 16.75 18 15.1803 18 13.25C18 11.3197 16.4303 9.75 14.5 9.75C12.5697 9.75 11 11.3197 11 13.25C11 15.1803 12.5697 16.75 14.5 16.75ZM14.5 11.5C15.4651 11.5 16.25 12.2849 16.25 13.25C16.25 14.2151 15.4651 15 14.5 15C13.5349 15 12.75 14.2151 12.75 13.25C12.75 12.2849 13.5349 11.5 14.5 11.5Z" fill="#0E0D0D" fill-opacity="0.7"/>
<path d="M13.9925 23.5872C14.1407 23.6928 14.3181 23.7495 14.5 23.7495C14.6819 23.7495 14.8593 23.6928 15.0075 23.5872C15.2735 23.3991 21.5254 18.885 21.5 13.25C21.5 9.39038 18.3596 6.25 14.5 6.25C10.6404 6.25 7.50002 9.39037 7.50002 13.2456C7.47464 18.885 13.7265 23.3991 13.9925 23.5872ZM14.5 8C17.3954 8 19.75 10.3546 19.75 13.2544C19.7684 17.1376 15.9105 20.6245 14.5 21.7681C13.0904 20.6236 9.23164 17.1359 9.25002 13.25C9.25002 10.3546 11.6046 8 14.5 8Z" fill="#0E0D0D" fill-opacity="0.7"/>
</svg>
