<svg width="12" height="16" viewBox="0 0 12 16" fill="none" xmlns="http://www.w3.org/2000/svg">
<path d="M1.73081 15.125C1.35681 15.125 1.03731 14.9926 0.772313 14.7277C0.507438 14.4627 0.375 14.1432 0.375 13.7692V6.73081C0.375 6.35681 0.507438 6.03731 0.772313 5.77231C1.03731 5.50744 1.35681 5.375 1.73081 5.375H2.625V3.875C2.625 2.9385 2.95338 2.14187 3.61013 1.48512C4.26688 0.828375 5.0635 0.5 6 0.5C6.9365 0.5 7.73313 0.828375 8.38988 1.48512C9.04663 2.14187 9.375 2.9385 9.375 3.875V5.375H10.2692C10.6432 5.375 10.9627 5.50744 11.2277 5.77231C11.4926 6.03731 11.625 6.35681 11.625 6.73081V13.7692C11.625 14.1432 11.4926 14.4627 11.2277 14.7277C10.9627 14.9926 10.6432 15.125 10.2692 15.125H1.73081ZM1.73081 14H10.2692C10.3366 14 10.3919 13.9784 10.4351 13.9351C10.4784 13.8919 10.5 13.8366 10.5 13.7692V6.73081C10.5 6.66344 10.4784 6.60813 10.4351 6.56488C10.3919 6.52163 10.3366 6.5 10.2692 6.5H1.73081C1.66344 6.5 1.60813 6.52163 1.56488 6.56488C1.52163 6.60813 1.5 6.66344 1.5 6.73081V13.7692C1.5 13.8366 1.52163 13.8919 1.56488 13.9351C1.60813 13.9784 1.66344 14 1.73081 14ZM6 11.5625C6.36438 11.5625 6.67425 11.4349 6.92963 11.1796C7.18488 10.9242 7.3125 10.6144 7.3125 10.25C7.3125 9.88563 7.18488 9.57575 6.92963 9.32038C6.67425 9.06513 6.36438 8.9375 6 8.9375C5.63563 8.9375 5.32575 9.06513 5.07038 9.32038C4.81513 9.57575 4.6875 9.88563 4.6875 10.25C4.6875 10.6144 4.81513 10.9242 5.07038 11.1796C5.32575 11.4349 5.63563 11.5625 6 11.5625ZM3.75 5.375H8.25V3.875C8.25 3.25 8.03125 2.71875 7.59375 2.28125C7.15625 1.84375 6.625 1.625 6 1.625C5.375 1.625 4.84375 1.84375 4.40625 2.28125C3.96875 2.71875 3.75 3.25 3.75 3.875V5.375Z" fill="#0E0D0D"/>
</svg>
