<svg width="19" height="19" viewBox="0 0 19 19" fill="none" xmlns="http://www.w3.org/2000/svg">
<path d="M0 18.705V1.97425C0 1.46909 0.175 1.0415 0.525 0.691504C0.875 0.341504 1.30258 0.166504 1.80775 0.166504H17.1923C17.6974 0.166504 18.125 0.341504 18.475 0.691504C18.825 1.0415 19 1.46909 19 1.97425V13.3588C19 13.8639 18.825 14.2915 18.475 14.6415C18.125 14.9915 17.6974 15.1665 17.1923 15.1665H3.5385L0 18.705ZM2.9 13.6665H17.1923C17.2693 13.6665 17.3398 13.6344 17.4038 13.5703C17.4679 13.5063 17.5 13.4358 17.5 13.3588V1.97425C17.5 1.89725 17.4679 1.82675 17.4038 1.76275C17.3398 1.69859 17.2693 1.6665 17.1923 1.6665H1.80775C1.73075 1.6665 1.66025 1.69859 1.59625 1.76275C1.53208 1.82675 1.5 1.89725 1.5 1.97425V15.0513L2.9 13.6665Z" fill="#FAFAFA"/>
</svg>
