<svg width="13" height="12" viewBox="0 0 13 12" fill="none" xmlns="http://www.w3.org/2000/svg">
<path d="M0.5625 11.6491V1.19234C0.5625 0.876615 0.671875 0.609375 0.890625 0.390625C1.10938 0.171875 1.37661 0.0625 1.69234 0.0625H11.3077C11.6234 0.0625 11.8906 0.171875 12.1094 0.390625C12.3281 0.609375 12.4375 0.876615 12.4375 1.19234V8.30766C12.4375 8.62339 12.3281 8.89062 12.1094 9.10938C11.8906 9.32812 11.6234 9.4375 11.3077 9.4375H2.77406L0.5625 11.6491ZM2.375 8.5H11.3077C11.3558 8.5 11.3998 8.47995 11.4398 8.43984C11.4799 8.39984 11.5 8.35578 11.5 8.30766V1.19234C11.5 1.14422 11.4799 1.10016 11.4398 1.06016C11.3998 1.02005 11.3558 1 11.3077 1H1.69234C1.64422 1 1.60016 1.02005 1.56016 1.06016C1.52005 1.10016 1.5 1.14422 1.5 1.19234V9.36547L2.375 8.5Z" fill="#0E0D0D" fill-opacity="0.5"/>
</svg>
