<svg width="15" height="22" viewBox="0 0 15 22" fill="none" xmlns="http://www.w3.org/2000/svg">
<path d="M2.30775 21.5C1.80908 21.5 1.38308 21.3234 1.02975 20.9703C0.676583 20.6169 0.5 20.1909 0.5 19.6923V2.30775C0.5 1.80258 0.675 1.375 1.025 1.025C1.375 0.675 1.80258 0.5 2.30775 0.5H11.7308C12.2294 0.5 12.6553 0.676583 13.0085 1.02975C13.3618 1.38308 13.5385 1.80908 13.5385 2.30775V5.4655C13.8128 5.53717 14.0417 5.68042 14.225 5.89525C14.4083 6.10992 14.5 6.35958 14.5 6.64425V8.52875C14.5 8.81342 14.4083 9.06317 14.225 9.278C14.0417 9.49267 13.8128 9.63592 13.5385 9.70775V19.6923C13.5385 20.1909 13.3618 20.6169 13.0085 20.9703C12.6553 21.3234 12.2294 21.5 11.7308 21.5H2.30775ZM2.30775 20H11.7308C11.8204 20 11.8942 19.9712 11.952 19.9135C12.0097 19.8558 12.0385 19.7821 12.0385 19.6923V2.30775C12.0385 2.21792 12.0097 2.14417 11.952 2.0865C11.8942 2.02883 11.8204 2 11.7308 2H2.30775C2.21792 2 2.14417 2.02883 2.0865 2.0865C2.02883 2.14417 2 2.21792 2 2.30775V19.6923C2 19.7821 2.02883 19.8558 2.0865 19.9135C2.14417 19.9712 2.21792 20 2.30775 20ZM4.94225 18.6152H9.09625C9.30908 18.6152 9.48725 18.5435 9.63075 18.4C9.77442 18.2563 9.84625 18.0781 9.84625 17.8652C9.84625 17.6526 9.77442 17.4744 9.63075 17.3307C9.48725 17.1873 9.30908 17.1155 9.09625 17.1155H4.94225C4.72942 17.1155 4.55125 17.1873 4.40775 17.3307C4.26408 17.4744 4.19225 17.6526 4.19225 17.8652C4.19225 18.0781 4.26408 18.2563 4.40775 18.4C4.55125 18.5435 4.72942 18.6152 4.94225 18.6152Z" fill="#FAFAFA"/>
</svg>
