<svg width="18" height="18" viewBox="0 0 18 18" fill="none" xmlns="http://www.w3.org/2000/svg">
<path d="M7.4475 9.7425C7.5225 9.7425 9.2625 9.8175 10.2975 9.5625H10.305C11.4975 9.27 13.155 8.43 13.5825 5.685C13.5825 5.685 14.535 2.25 9.81 2.25H5.7525C5.38499 2.25 5.06999 2.52 5.00999 2.88L3.285 13.8C3.2475 14.025 3.42749 14.235 3.65249 14.235H6.225L6.855 10.245C6.9 9.96 7.1475 9.7425 7.4475 9.7425Z" fill="black"/>
<path d="M14.2425 6.21777C13.635 9.01527 11.7225 10.4928 8.67748 10.4928H7.57498L6.80248 15.3828C6.77248 15.5778 6.92248 15.7503 7.11748 15.7503H8.54248C8.79748 15.7503 9.02248 15.5628 9.05998 15.3078C9.11998 15.0078 9.44998 12.8178 9.51748 12.4428C9.55498 12.1878 9.77998 12.0003 10.035 12.0003H10.365C12.48 12.0003 14.1375 11.1378 14.625 8.65527C14.82 7.65027 14.715 6.82527 14.2425 6.21777Z" fill="black"/>
</svg>
