<svg width="13" height="14" viewBox="0 0 13 14" fill="none" xmlns="http://www.w3.org/2000/svg">
<path d="M1.33163 12.1683H2.26304L9.82102 4.61036L8.88961 3.67894L1.33163 11.2369V12.1683ZM0.224121 13.2758V10.7769L9.96315 1.04216C10.0748 0.940761 10.198 0.862436 10.3329 0.807184C10.4679 0.751809 10.6094 0.724121 10.7574 0.724121C10.9055 0.724121 11.0488 0.750394 11.1875 0.802939C11.3263 0.855484 11.4492 0.939038 11.5561 1.0536L12.4578 1.96656C12.5724 2.07349 12.654 2.19655 12.7027 2.33573C12.7515 2.4749 12.7758 2.61408 12.7758 2.75325C12.7758 2.90178 12.7505 3.04348 12.6998 3.17835C12.6491 3.31335 12.5684 3.43665 12.4578 3.54826L2.72302 13.2758H0.224121ZM9.34719 4.15277L8.88961 3.67894L9.82102 4.61036L9.34719 4.15277Z" fill="#FFFFFF"/>
</svg>
