<svg width="28" height="28" viewBox="0 0 28 28" fill="none" xmlns="http://www.w3.org/2000/svg">
<path d="M3.40377 27.4582C2.60393 27.4582 1.92692 27.1811 1.37275 26.6269C0.818587 26.0728 0.541504 25.3957 0.541504 24.5959V3.40377C0.541504 2.60393 0.818587 1.92692 1.37275 1.37275C1.92692 0.818587 2.60393 0.541504 3.40377 0.541504H24.5959C25.3957 0.541504 26.0728 0.818587 26.6269 1.37275C27.1811 1.92692 27.4582 2.60393 27.4582 3.40377V24.5959C27.4582 25.3957 27.1811 26.0728 26.6269 26.6269C26.0728 27.1811 25.3957 27.4582 24.5959 27.4582H3.40377ZM3.40377 25.0832H24.5959C24.7178 25.0832 24.8294 25.0324 24.9308 24.9308C25.0324 24.8294 25.0832 24.7178 25.0832 24.5959V3.40377C25.0832 3.28186 25.0324 3.17023 24.9308 3.0689C24.8294 2.9673 24.7178 2.9165 24.5959 2.9165H3.40377C3.28186 2.9165 3.17023 2.9673 3.0689 3.0689C2.9673 3.17023 2.9165 3.28186 2.9165 3.40377V24.5959C2.9165 24.7178 2.9673 24.8294 3.0689 24.9308C3.17023 25.0324 3.28186 25.0832 3.40377 25.0832ZM5.68734 21.5207H22.4339L17.2275 14.5785L12.7819 20.3636L9.61519 16.3139L5.68734 21.5207Z" fill="#0E0D0D" fill-opacity="0.7"/>
</svg>
