<svg width="37" height="37" viewBox="0 0 37 37" fill="none" xmlns="http://www.w3.org/2000/svg">
<path d="M11.2306 32.8366C10.5019 32.8366 9.88225 32.5812 9.37175 32.0705C8.86125 31.56 8.606 30.9404 8.606 30.2116C8.606 29.4826 8.86125 28.8629 9.37175 28.3524C9.88225 27.8419 10.5019 27.5866 11.2306 27.5866C11.9596 27.5866 12.5794 27.8419 13.0899 28.3524C13.6004 28.8629 13.8556 29.4826 13.8556 30.2116C13.8556 30.9404 13.6004 31.56 13.0899 32.0705C12.5794 32.5812 11.9596 32.8366 11.2306 32.8366ZM25.7694 32.8366C25.0404 32.8366 24.4206 32.5812 23.9101 32.0705C23.3996 31.56 23.1444 30.9404 23.1444 30.2116C23.1444 29.4826 23.3996 28.8629 23.9101 28.3524C24.4206 27.8419 25.0404 27.5866 25.7694 27.5866C26.4981 27.5866 27.1177 27.8419 27.6282 28.3524C28.1387 28.8629 28.394 29.4826 28.394 30.2116C28.394 30.9404 28.1387 31.56 27.6282 32.0705C27.1177 32.5812 26.4981 32.8366 25.7694 32.8366ZM9.52287 9.125L13.325 17.0866H23.5509C23.6374 17.0866 23.7144 17.065 23.7819 17.0217C23.8491 16.9785 23.9067 16.9184 23.9548 16.8414L27.9789 9.52888C28.0366 9.42313 28.0414 9.32938 27.9931 9.24763C27.9451 9.16588 27.8634 9.125 27.7479 9.125H9.52287ZM8.44438 6.875H29.2711C29.8846 6.875 30.3485 7.13613 30.6628 7.65838C30.9772 8.18038 30.9922 8.7135 30.7077 9.25775L25.9017 17.9634C25.6557 18.3961 25.3304 18.7331 24.9256 18.9744C24.5206 19.2159 24.0769 19.3366 23.5944 19.3366H12.65L10.9134 22.5095C10.8364 22.625 10.834 22.75 10.9062 22.8845C10.9782 23.0192 11.0864 23.0866 11.2306 23.0866H28.394V25.3366H11.2306C10.2306 25.3366 9.47925 24.9054 8.9765 24.0429C8.4735 23.1804 8.45575 22.3193 8.92325 21.4595L11.0634 17.6116L5.606 6.125H2.75V3.875H7.01937L8.44438 6.875Z" fill="#0E0D0D"/>
</svg>
