<svg width="14" height="16" viewBox="0 0 14 16" fill="none" xmlns="http://www.w3.org/2000/svg">
<path d="M10.8335 2.85C10.2639 2.19961 9.95004 1.3645 9.95013 0.5H7.37513V10.8333C7.35568 11.3927 7.11973 11.9226 6.71705 12.3112C6.31438 12.6999 5.77646 12.917 5.2168 12.9167C4.03346 12.9167 3.05013 11.95 3.05013 10.75C3.05013 9.31667 4.43346 8.24167 5.85846 8.68333V6.05C2.98346 5.66667 0.466797 7.9 0.466797 10.75C0.466797 13.525 2.7668 15.5 5.20846 15.5C7.82513 15.5 9.95013 13.375 9.95013 10.75V5.50833C10.9943 6.25821 12.2479 6.66054 13.5335 6.65833V4.08333C13.5335 4.08333 11.9668 4.15833 10.8335 2.85Z" fill="black"/>
</svg>
