<svg width="24" height="25" viewBox="0 0 24 25" fill="none" xmlns="http://www.w3.org/2000/svg">
<path d="M11.25 16.2885V7.8885L8.78475 10.3538L7.73075 9.26925L12 5L16.2693 9.26925L15.2153 10.3538L12.75 7.8885V16.2885H11.25ZM6.30775 20C5.80258 20 5.375 19.825 5.025 19.475C4.675 19.125 4.5 18.6974 4.5 18.1923V15.4808H6V18.1923C6 18.2692 6.03208 18.3398 6.09625 18.4038C6.16025 18.4679 6.23075 18.5 6.30775 18.5H17.6923C17.7692 18.5 17.8398 18.4679 17.9038 18.4038C17.9679 18.3398 18 18.2692 18 18.1923V15.4808H19.5V18.1923C19.5 18.6974 19.325 19.125 18.975 19.475C18.625 19.825 18.1974 20 17.6923 20H6.30775Z" fill="#FAFAFA"/>
</svg>
