<svg width="36" height="37" viewBox="0 0 36 37" fill="none" xmlns="http://www.w3.org/2000/svg">
<path d="M18 18.0386C16.5563 18.0386 15.3204 17.5246 14.2924 16.4966C13.2641 15.4683 12.75 14.2323 12.75 12.7886C12.75 11.3448 13.2641 10.1089 14.2924 9.08095C15.3204 8.0527 16.5563 7.53857 18 7.53857C19.4438 7.53857 20.6796 8.0527 21.7076 9.08095C22.7359 10.1089 23.25 11.3448 23.25 12.7886C23.25 14.2323 22.7359 15.4683 21.7076 16.4966C20.6796 17.5246 19.4438 18.0386 18 18.0386ZM6.75 29.4618V26.1269C6.75 25.3925 6.9495 24.7122 7.3485 24.0862C7.7475 23.4602 8.28075 22.9789 8.94825 22.6424C10.4307 21.9157 11.9264 21.3706 13.4351 21.0071C14.9439 20.6436 16.4655 20.4618 18 20.4618C19.5345 20.4618 21.0561 20.6436 22.5649 21.0071C24.0736 21.3706 25.5693 21.9157 27.0518 22.6424C27.7193 22.9789 28.2525 23.4602 28.6515 24.0862C29.0505 24.7122 29.25 25.3925 29.25 26.1269V29.4618H6.75ZM9 27.2118H27V26.1269C27 25.8232 26.912 25.542 26.736 25.2832C26.56 25.0247 26.3211 24.8137 26.0194 24.6502C24.7269 24.0137 23.4091 23.5315 22.0661 23.2035C20.7229 22.8757 19.3675 22.7118 18 22.7118C16.6325 22.7118 15.2771 22.8757 13.9339 23.2035C12.5909 23.5315 11.2731 24.0137 9.98062 24.6502C9.67887 24.8137 9.44 25.0247 9.264 25.2832C9.088 25.542 9 25.8232 9 26.1269V27.2118ZM18 15.7886C18.825 15.7886 19.5313 15.4948 20.1188 14.9073C20.7063 14.3198 21 13.6136 21 12.7886C21 11.9636 20.7063 11.2573 20.1188 10.6698C19.5313 10.0823 18.825 9.78857 18 9.78857C17.175 9.78857 16.4688 10.0823 15.8813 10.6698C15.2938 11.2573 15 11.9636 15 12.7886C15 13.6136 15.2938 14.3198 15.8813 14.9073C16.4688 15.4948 17.175 15.7886 18 15.7886Z" fill="#0E0D0D"/>
</svg>
