<svg width="25" height="24" viewBox="0 0 25 24" fill="none" xmlns="http://www.w3.org/2000/svg">
<path d="M6.5 22C5.95 22 5.47917 21.8042 5.0875 21.4125C4.69583 21.0208 4.5 20.55 4.5 20V8C4.5 7.45 4.69583 6.97917 5.0875 6.5875C5.47917 6.19583 5.95 6 6.5 6H8.5C8.5 4.9 8.89167 3.95833 9.675 3.175C10.4583 2.39167 11.4 2 12.5 2C13.6 2 14.5417 2.39167 15.325 3.175C16.1083 3.95833 16.5 4.9 16.5 6H18.5C19.05 6 19.5208 6.19583 19.9125 6.5875C20.3042 6.97917 20.5 7.45 20.5 8V20C20.5 20.55 20.3042 21.0208 19.9125 21.4125C19.5208 21.8042 19.05 22 18.5 22H6.5ZM6.5 20H18.5V8H16.5V10C16.5 10.2833 16.4042 10.5208 16.2125 10.7125C16.0208 10.9042 15.7833 11 15.5 11C15.2167 11 14.9792 10.9042 14.7875 10.7125C14.5958 10.5208 14.5 10.2833 14.5 10V8H10.5V10C10.5 10.2833 10.4042 10.5208 10.2125 10.7125C10.0208 10.9042 9.78333 11 9.5 11C9.21667 11 8.97917 10.9042 8.7875 10.7125C8.59583 10.5208 8.5 10.2833 8.5 10V8H6.5V20ZM10.5 6H14.5C14.5 5.45 14.3042 4.97917 13.9125 4.5875C13.5208 4.19583 13.05 4 12.5 4C11.95 4 11.4792 4.19583 11.0875 4.5875C10.6958 4.97917 10.5 5.45 10.5 6Z" fill="#0E0D0D" fill-opacity="0.5"/>
</svg>
