<svg width="19" height="19" viewBox="0 0 19 19" fill="none" xmlns="http://www.w3.org/2000/svg">
<path d="M6.57709 18.5433L4.9413 15.7864L1.83517 15.1058L2.13836 11.9083L0.0336914 9.50018L2.13836 7.09209L1.83517 3.89453L4.9413 3.21391L6.57709 0.457031L9.49988 1.69797L12.4227 0.457031L14.0585 3.21391L17.1646 3.89453L16.8614 7.09209L18.9661 9.50018L16.8614 11.9083L17.1646 15.1058L14.0585 15.7864L12.4227 18.5433L9.49988 17.3024L6.57709 18.5433ZM7.16238 16.7877L9.49988 15.797L11.8656 16.7877L13.1665 14.5877L15.6874 14.0095L15.4582 11.4252L17.154 9.50018L15.4582 7.54699L15.6874 4.96268L13.1665 4.41268L11.8374 2.21268L9.49988 3.20336L7.13419 2.21268L5.83321 4.41268L3.31238 4.96268L3.54155 7.54699L1.84571 9.50018L3.54155 11.4252L3.31238 14.0377L5.83321 14.5877L7.16238 16.7877ZM8.53738 12.4369L13.3991 7.57518L12.4332 6.58105L8.53738 10.4769L6.56655 8.53424L5.60061 9.50018L8.53738 12.4369Z" fill="#F05A60"/>
</svg>
