<svg width="24" height="25" viewBox="0 0 24 25" fill="none" xmlns="http://www.w3.org/2000/svg">
<rect x="3" y="8.5" width="18" height="8" fill="white"/>
<path d="M2.7956 6.5C2.35629 6.5 2 6.85619 2 7.2956V18.1953C2 18.6347 2.35647 18.9909 2.7956 18.9909H21.0944C21.5337 18.9909 21.89 18.6347 21.89 18.1953V7.2956C21.89 6.85621 21.5335 6.5 21.0944 6.5H2.7956ZM13.8793 10.2225C14.3634 10.2225 14.7513 10.3295 14.9987 10.4289L14.8297 11.4924L14.7178 11.4358C14.4873 11.3364 14.1913 11.2407 13.783 11.2475C13.2941 11.2475 13.0682 11.4655 13.0682 11.6696C13.0653 11.8994 13.3322 12.051 13.7687 12.278C14.489 12.6283 14.8219 13.053 14.8173 13.6113C14.8075 14.63 13.9555 15.2883 12.643 15.2883C12.0831 15.2821 11.5436 15.1636 11.252 15.0266L11.4272 13.9277L11.5882 14.006C11.9983 14.1892 12.2638 14.2633 12.7636 14.2633C13.1225 14.2633 13.5077 14.1131 13.5107 13.7841C13.513 13.5693 13.3497 13.4161 12.8637 13.1756C12.39 12.9408 11.7622 12.5475 11.7691 11.8423C11.7765 10.8884 12.6455 10.2225 13.8793 10.2225ZM3.75901 10.3786H5.77474C6.04618 10.3888 6.26533 10.4762 6.34099 10.7708L6.77547 13.0134C6.77553 13.0136 6.77539 13.0144 6.77547 13.0146L6.90599 13.6865L8.12984 10.3786H9.45378L7.4859 15.2205L6.16322 15.2218L5.1103 11.3146C5.73679 11.6465 6.27016 12.0305 6.57906 12.559C6.49942 12.3918 6.39448 12.203 6.2602 12.017C6.10382 11.8003 5.76611 11.5206 5.62495 11.4016C5.13307 10.987 4.46507 10.6521 3.74348 10.4749L3.75901 10.3786ZM9.98025 10.3841H11.275L10.465 15.2187H9.17034L9.98025 10.3841ZM17.2929 10.3841H18.2738L19.3006 15.2187H18.1233C18.1233 15.2187 18.0065 14.6633 17.9686 14.4939C17.7835 14.4939 16.4894 14.4921 16.3438 14.4921C16.2945 14.6229 16.0765 15.2186 16.0765 15.2186H14.7445L16.6285 10.7857C16.7619 10.4707 16.9892 10.3841 17.2929 10.3841ZM17.3893 11.6844C17.3256 11.8643 17.2146 12.1547 17.2221 12.1419C17.2221 12.1419 16.8235 13.2048 16.7192 13.4808L17.7665 13.4801C17.6693 13.0191 17.5719 12.5582 17.4744 12.0972L17.3893 11.6845V11.6844Z" fill="#0040DD"/>
</svg>
