<svg width="24" height="24" viewBox="0 0 24 24" fill="none" xmlns="http://www.w3.org/2000/svg">
<path d="M19 7.24962H18.75V4.99962C18.7474 4.5363 18.5621 4.09271 18.2345 3.76508C17.9069 3.43746 17.4633 3.25225 17 3.24962C16.9206 3.2358 16.8394 3.2358 16.76 3.24962L4.85998 7.24962H4.58998L4.41998 7.30962H4.27998L4.11998 7.39962L3.99998 7.56962L3.85998 7.68962L3.74998 7.78962L3.62998 7.93962C3.59812 7.96844 3.57111 8.00221 3.54998 8.03962C3.51358 8.09786 3.4802 8.15794 3.44998 8.21962L3.38998 8.32962C3.36243 8.40154 3.33906 8.475 3.31998 8.54962C3.32403 8.58618 3.32403 8.62306 3.31998 8.65962C3.31033 8.77275 3.31033 8.88649 3.31998 8.99962V18.9996C3.32208 19.4511 3.49763 19.8846 3.81032 20.2103C4.12301 20.536 4.54893 20.7291 4.99998 20.7496H19C19.4633 20.747 19.9069 20.5618 20.2345 20.2342C20.5621 19.9065 20.7474 19.4629 20.75 18.9996V8.99962C20.7474 8.5363 20.5621 8.09271 20.2345 7.76508C19.9069 7.43746 19.4633 7.25225 19 7.24962ZM17.08 4.75962C17.1292 4.77779 17.1718 4.81043 17.2022 4.85327C17.2325 4.89611 17.2492 4.94713 17.25 4.99962V7.24962H9.61998L17.08 4.75962ZM19.25 18.9996C19.25 19.0659 19.2236 19.1295 19.1768 19.1764C19.1299 19.2233 19.0663 19.2496 19 19.2496H4.99998C4.93368 19.2496 4.87009 19.2233 4.82321 19.1764C4.77632 19.1295 4.74998 19.0659 4.74998 18.9996V8.99962C4.74998 8.93332 4.77632 8.86973 4.82321 8.82284C4.87009 8.77596 4.93368 8.74962 4.99998 8.74962H19C19.0663 8.74962 19.1299 8.77596 19.1768 8.82284C19.2236 8.86973 19.25 8.93332 19.25 8.99962V18.9996Z" fill="#0E0D0D" fill-opacity="0.5"/>
<path d="M16.5 15.25C17.1904 15.25 17.75 14.6904 17.75 14C17.75 13.3096 17.1904 12.75 16.5 12.75C15.8096 12.75 15.25 13.3096 15.25 14C15.25 14.6904 15.8096 15.25 16.5 15.25Z" fill="#0E0D0D" fill-opacity="0.5"/>
</svg>
