<svg width="30" height="31" viewBox="0 0 30 31" fill="none" xmlns="http://www.w3.org/2000/svg">
<path d="M23.85 13.85C19.05 11 11.025 10.7 6.45 12.125C5.7 12.35 4.95 11.9 4.725 11.225C4.5 10.475 4.95 9.725 5.625 9.5C10.95 7.925 19.725 8.225 25.275 11.525C25.95 11.9 26.175 12.8 25.8 13.475C25.425 14 24.525 14.225 23.85 13.85ZM23.7 18.05C23.325 18.575 22.65 18.8 22.125 18.425C18.075 15.95 11.925 15.2 7.2 16.7C6.6 16.85 5.925 16.55 5.775 15.95C5.625 15.35 5.925 14.675 6.525 14.525C12 12.875 18.75 13.7 23.4 16.55C23.85 16.775 24.075 17.525 23.7 18.05ZM21.9 22.175C21.6 22.625 21.075 22.775 20.625 22.475C17.1 20.3 12.675 19.85 7.425 21.05C6.9 21.2 6.45 20.825 6.3 20.375C6.15 19.85 6.525 19.4 6.975 19.25C12.675 17.975 17.625 18.5 21.525 20.9C22.05 21.125 22.125 21.725 21.9 22.175ZM15 0.5C13.0302 0.5 11.0796 0.887987 9.25975 1.64181C7.43986 2.39563 5.78628 3.50052 4.3934 4.8934C1.58035 7.70644 0 11.5218 0 15.5C0 19.4782 1.58035 23.2936 4.3934 26.1066C5.78628 27.4995 7.43986 28.6044 9.25975 29.3582C11.0796 30.112 13.0302 30.5 15 30.5C18.9782 30.5 22.7936 28.9196 25.6066 26.1066C28.4196 23.2936 30 19.4782 30 15.5C30 13.5302 29.612 11.5796 28.8582 9.75975C28.1044 7.93986 26.9995 6.28628 25.6066 4.8934C24.2137 3.50052 22.5601 2.39563 20.7403 1.64181C18.9204 0.887987 16.9698 0.5 15 0.5Z" fill="white"/>
</svg>
