<svg width="24" height="18" viewBox="0 0 24 18" fill="none" xmlns="http://www.w3.org/2000/svg">
<path d="M22.54 3.67C22.4151 3.20228 22.1698 2.77547 21.8285 2.4321C21.4872 2.08873 21.0619 1.84079 20.595 1.713C18.88 1.25 12 1.25 12 1.25C12 1.25 5.12 1.25 3.405 1.713C2.93806 1.84079 2.51276 2.08873 2.1715 2.4321C1.83023 2.77547 1.58492 3.20228 1.46 3.67C1 5.398 1 9 1 9C1 9 1 12.602 1.46 14.33C1.58476 14.7979 1.83001 15.2249 2.17129 15.5685C2.51256 15.912 2.93794 16.1601 3.405 16.288C5.121 16.75 12 16.75 12 16.75C12 16.75 18.88 16.75 20.595 16.288C21.0621 16.1601 21.4874 15.912 21.8287 15.5685C22.17 15.2249 22.4152 14.7979 22.54 14.33C23 12.604 23 9 23 9C23 9 23 5.398 22.54 3.67ZM9.75 12.271V5.73L15.5 9.001L9.75 12.271Z" stroke="black" stroke-width="1.5" stroke-miterlimit="10" stroke-linejoin="round"/>
</svg>
