<svg width="24" height="18" viewBox="0 0 24 18" fill="none" xmlns="http://www.w3.org/2000/svg">
<path d="M22.54 3.42C22.4151 2.95228 22.1698 2.52547 21.8285 2.1821C21.4872 1.83873 21.0619 1.59079 20.595 1.463C18.88 1 12 1 12 1C12 1 5.12 1 3.405 1.463C2.93806 1.59079 2.51276 1.83873 2.1715 2.1821C1.83023 2.52547 1.58492 2.95228 1.46 3.42C1 5.148 1 8.75 1 8.75C1 8.75 1 12.352 1.46 14.08C1.58476 14.5479 1.83001 14.9749 2.17129 15.3185C2.51256 15.662 2.93794 15.9101 3.405 16.038C5.121 16.5 12 16.5 12 16.5C12 16.5 18.88 16.5 20.595 16.038C21.0621 15.9101 21.4874 15.662 21.8287 15.3185C22.17 14.9749 22.4152 14.5479 22.54 14.08C23 12.354 23 8.75 23 8.75C23 8.75 23 5.148 22.54 3.42ZM9.75 12.021V5.48L15.5 8.751L9.75 12.021Z" stroke="#FAFAFA" stroke-width="1.5" stroke-miterlimit="10" stroke-linejoin="round"/>
</svg>
